<svg width="37" height="37" viewBox="0 0 37 37" fill="none" xmlns="http://www.w3.org/2000/svg">
<path fill-rule="evenodd" clip-rule="evenodd" d="M11.5085 1.64341C13.3169 1.56016 13.8935 1.54166 18.5 1.54166C23.1065 1.54166 23.683 1.5617 25.4899 1.64341C27.2967 1.72511 28.53 2.01341 29.6092 2.4312C30.7392 2.85824 31.7645 3.52578 32.6124 4.38911C33.4757 5.23549 34.1417 6.25916 34.5672 7.39074C34.9865 8.46991 35.2733 9.70324 35.3565 11.507C35.4398 13.3184 35.4583 13.895 35.4583 18.5C35.4583 23.1065 35.4382 23.6831 35.3565 25.4914C35.2748 27.2952 34.9865 28.5285 34.5672 29.6077C34.1417 30.7394 33.4746 31.7648 32.6124 32.6124C31.7645 33.4757 30.7392 34.1417 29.6092 34.5672C28.53 34.9866 27.2967 35.2733 25.493 35.3566C23.683 35.4398 23.1065 35.4583 18.5 35.4583C13.8935 35.4583 13.3169 35.4383 11.5085 35.3566C9.70475 35.2749 8.47142 34.9866 7.39225 34.5672C6.26054 34.1417 5.23518 33.4746 4.38754 32.6124C3.52479 31.7655 2.85715 30.7406 2.43117 29.6092C2.01338 28.5301 1.72663 27.2967 1.64338 25.493C1.56013 23.6815 1.54163 23.1049 1.54163 18.5C1.54163 13.8935 1.56167 13.3169 1.64338 11.5101C1.72508 9.70324 2.01338 8.46991 2.43117 7.39074C2.85778 6.25928 3.52593 5.23443 4.38908 4.38757C5.23552 3.52501 6.25985 2.85738 7.39071 2.4312C8.46988 2.01341 9.70321 1.72666 11.507 1.64341H11.5085ZM25.3527 4.69591C23.5643 4.6142 23.0278 4.59724 18.5 4.59724C13.9721 4.59724 13.4356 4.6142 11.6472 4.69591C9.99304 4.77145 9.09579 5.04741 8.49763 5.2802C7.70675 5.58853 7.14096 5.95391 6.54742 6.54745C5.98478 7.09482 5.55178 7.76117 5.28017 8.49766C5.04738 9.09582 4.77142 9.99307 4.69588 11.6473C4.61417 13.4356 4.59721 13.9721 4.59721 18.5C4.59721 23.0279 4.61417 23.5644 4.69588 25.3527C4.77142 27.0069 5.04738 27.9042 5.28017 28.5023C5.5515 29.2377 5.98471 29.9052 6.54742 30.4525C7.09471 31.0152 7.76225 31.4484 8.49763 31.7198C9.09579 31.9526 9.99304 32.2285 11.6472 32.3041C13.4356 32.3858 13.9705 32.4027 18.5 32.4027C23.0294 32.4027 23.5643 32.3858 25.3527 32.3041C27.0069 32.2285 27.9041 31.9526 28.5023 31.7198C29.2932 31.4114 29.859 31.0461 30.4525 30.4525C31.0152 29.9052 31.4484 29.2377 31.7197 28.5023C31.9525 27.9042 32.2285 27.0069 32.304 25.3527C32.3857 23.5644 32.4027 23.0279 32.4027 18.5C32.4027 13.9721 32.3857 13.4356 32.304 11.6473C32.2285 9.99307 31.9525 9.09582 31.7197 8.49766C31.4114 7.70678 31.046 7.14099 30.4525 6.54745C29.9051 5.98485 29.2387 5.55186 28.5023 5.2802C27.9041 5.04741 27.0069 4.77145 25.3527 4.69591V4.69591ZM16.3339 23.7278C17.5436 24.2313 18.8906 24.2993 20.1448 23.9201C21.399 23.5408 22.4827 22.7379 23.2107 21.6484C23.9387 20.559 24.2659 19.2506 24.1364 17.9467C24.0068 16.6428 23.4287 15.4243 22.5006 14.4994C21.9089 13.9081 21.1936 13.4554 20.406 13.1738C19.6184 12.8921 18.7781 12.7887 17.9457 12.8708C17.1133 12.9529 16.3095 13.2185 15.5921 13.6486C14.8747 14.0786 14.2615 14.6624 13.7968 15.3578C13.3321 16.0533 13.0273 16.8431 12.9045 17.6705C12.7817 18.4979 12.8438 19.3422 13.0865 20.1427C13.3291 20.9431 13.7462 21.6798 14.3077 22.2998C14.8693 22.9197 15.5613 23.4074 16.3339 23.7278ZM12.3364 12.3364C13.1458 11.527 14.1067 10.8849 15.1643 10.4469C16.2218 10.0088 17.3553 9.78337 18.5 9.78337C19.6446 9.78337 20.7781 10.0088 21.8357 10.4469C22.8932 10.8849 23.8541 11.527 24.6635 12.3364C25.473 13.1458 26.115 14.1067 26.5531 15.1643C26.9911 16.2218 27.2166 17.3553 27.2166 18.5C27.2166 19.6447 26.9911 20.7781 26.5531 21.8357C26.115 22.8932 25.473 23.8542 24.6635 24.6636C23.0289 26.2983 20.8117 27.2166 18.5 27.2166C16.1882 27.2166 13.9711 26.2983 12.3364 24.6636C10.7017 23.0289 9.78334 20.8118 9.78334 18.5C9.78334 16.1882 10.7017 13.9711 12.3364 12.3364V12.3364ZM29.1498 11.0815C29.3504 10.8923 29.5109 10.6647 29.622 10.4124C29.7331 10.16 29.7924 9.88788 29.7964 9.61217C29.8004 9.33646 29.7491 9.06275 29.6454 8.80724C29.5417 8.55173 29.3879 8.31961 29.1929 8.12463C28.9979 7.92966 28.7658 7.77578 28.5103 7.67212C28.2548 7.56846 27.9811 7.51712 27.7054 7.52114C27.4296 7.52516 27.1575 7.58446 26.9052 7.69552C26.6528 7.80659 26.4252 7.96716 26.236 8.16774C25.8681 8.55783 25.6666 9.07597 25.6744 9.61217C25.6822 10.1484 25.8987 10.6604 26.2779 11.0396C26.6571 11.4188 27.1692 11.6353 27.7054 11.6431C28.2416 11.6509 28.7597 11.4495 29.1498 11.0815V11.0815Z" fill="white"/>
</svg>
