<svg width="140" height="134" viewBox="0 0 140 134" fill="none" xmlns="http://www.w3.org/2000/svg">
<g clip-path="url(#clip0)">
<rect width="140" height="134" fill="#127780"/>
<path d="M70 0C56.1553 0 42.6215 3.92948 31.11 11.2915C19.5986 18.6536 10.6265 29.1176 5.32839 41.3602C0.0302538 53.6029 -1.35598 67.0743 1.34499 80.0711C4.04595 93.0678 10.7128 105.006 20.5025 114.376C30.2922 123.746 42.765 130.127 56.3436 132.713C69.9223 135.298 83.997 133.971 96.7878 128.9C109.579 123.829 120.511 115.241 128.203 104.223C135.895 93.2051 140 80.2514 140 67C140 58.2014 138.189 49.489 134.672 41.3602C131.154 33.2314 125.998 25.8454 119.497 19.6238C112.997 13.4023 105.281 8.46714 96.7878 5.10007C88.295 1.73301 79.1925 0 70 0V0ZM70 125.719C57.8166 125.719 45.9069 122.261 35.7768 115.782C25.6468 109.304 17.7513 100.095 13.089 89.3218C8.42662 78.5483 7.20673 66.6934 9.58358 55.2563C11.9604 43.8192 17.8273 33.3135 26.4422 25.0678C35.0571 16.8221 46.0332 11.2067 57.9824 8.9317C69.9316 6.65672 82.3173 7.82432 93.5732 12.2869C104.829 16.7494 114.45 24.3065 121.218 34.0024C127.987 43.6983 131.6 55.0976 131.6 66.7588C131.593 82.3913 125.099 97.3811 113.548 108.432C101.996 119.484 86.3324 125.692 70 125.692V125.719Z" fill="white"/>
<path d="M70 9.78198C58.2043 9.78198 46.6735 13.1299 36.8658 19.4024C27.058 25.6748 19.4138 34.5901 14.8998 45.0209C10.3858 55.4516 9.20474 66.9293 11.506 78.0025C13.8072 89.0757 19.4873 99.2471 27.8281 107.23C36.169 115.214 46.7958 120.651 58.3648 122.853C69.9338 125.056 81.9255 123.925 92.8232 119.605C103.721 115.284 113.036 107.968 119.589 98.5802C126.142 89.1927 129.64 78.1561 129.64 66.866C129.618 51.7329 123.327 37.2257 112.147 26.525C100.967 15.8243 85.8107 9.80325 70 9.78198Z" fill="white"/>
<path d="M61.6196 47.0374C61.6196 46.9879 61.6713 46.889 61.5679 46.8395C61.4646 46.8395 61.4129 46.9384 61.4129 47.0374C61.4129 47.1363 61.3612 47.2353 61.3612 47.3342C61.3612 47.4331 61.4129 47.4826 61.5162 47.4826C61.6196 47.4826 61.6713 47.4331 61.6713 47.3342C61.6196 47.2353 61.6196 47.1363 61.6196 47.0374ZM64.514 60.2953C64.514 60.0975 64.4106 59.949 64.2039 59.8996C64.1005 59.8996 63.9971 59.949 63.9971 60.048V60.0975C63.9971 60.2953 64.1522 60.4437 64.3589 60.4437C64.4623 60.4932 64.514 60.3943 64.514 60.2953ZM60.5342 46.1964C60.6376 46.1964 60.741 46.1964 60.7927 46.0974C60.8443 45.9985 60.7927 45.8996 60.6893 45.8501C60.5342 45.8006 60.3792 45.7017 60.2241 45.6522C60.1207 45.6027 60.0174 45.6522 59.9657 45.7017C59.914 45.7512 59.914 45.8501 59.9657 45.949C60.0691 46.1469 60.3275 46.1469 60.5342 46.1964ZM63.1702 57.8713V58.0692C63.2219 58.1681 63.2219 58.2671 63.3769 58.2671C63.532 58.2671 63.5836 58.1681 63.5836 58.0692C63.6353 57.9208 63.6353 57.7724 63.6353 57.624C63.6353 57.4755 63.532 57.3766 63.3769 57.3766C63.2219 57.3766 63.1702 57.4755 63.1185 57.624C63.1702 57.6734 63.1702 57.7724 63.1702 57.8713ZM61.4646 48.9667C61.4646 48.8678 61.4646 48.7194 61.3095 48.6699C61.1544 48.6204 61.1028 48.7194 61.0511 48.8678C60.9994 49.0656 60.896 49.2635 60.8443 49.5109C60.7927 49.6098 60.8443 49.7088 60.9477 49.7582C61.0511 49.8077 61.1028 49.7582 61.1544 49.7088C61.3095 49.4614 61.4129 49.2141 61.4646 48.9667ZM66.1679 55.1999C66.2713 55.1999 66.323 55.1505 66.4263 55.1505C66.5297 55.1505 66.6331 55.002 66.6331 54.9031C66.6331 54.8536 66.5814 54.8042 66.5297 54.7547C66.3746 54.6063 66.1162 54.5568 65.9095 54.5568C65.7544 54.5568 65.6511 54.7052 65.6511 54.8042C65.6511 54.9031 65.7027 55.002 65.8061 55.0515C65.9095 55.1505 66.0645 55.1999 66.1679 55.1999ZM64.8758 56.4861C64.8758 56.2388 64.7724 56.0409 64.669 56.0409C64.4623 56.0904 64.4623 56.2388 64.4106 56.3872C64.4106 56.6346 64.3589 56.8324 64.3072 57.0798C64.2556 57.1787 64.2556 57.2282 64.3589 57.2777C64.4623 57.3271 64.5657 57.2777 64.6173 57.1787C64.7207 56.9808 64.8241 56.7335 64.8758 56.4861ZM70.3544 64.154C70.6128 64.154 70.8712 63.9561 70.9229 63.7088C70.9229 63.5604 70.8196 63.4119 70.6645 63.4119H70.6128C70.3544 63.4119 70.096 63.6098 70.0443 63.8572C70.0443 64.0551 70.1477 64.154 70.3544 64.154C70.3027 64.2035 70.3544 64.2035 70.3544 64.154ZM63.532 55.0515C63.6353 55.0515 63.7904 55.002 63.8421 54.9031C63.9971 54.7547 64.1522 54.5568 64.2556 54.3589C64.3072 54.3095 64.3072 54.2105 64.2556 54.1611C64.2039 54.1116 64.1522 54.1116 64.1005 54.1116C63.8421 54.26 63.6353 54.3589 63.3769 54.5073C63.2735 54.5568 63.2219 54.7052 63.2735 54.8536C63.3252 55.002 63.4286 55.0515 63.532 55.0515ZM69.5791 68.8536C69.5791 69.0021 69.5791 69.101 69.7342 69.1505C69.8892 69.1999 70.0443 69.101 70.096 69.0021C70.1477 68.8042 70.3027 68.6558 70.3027 68.4579C70.3027 68.359 70.3544 68.3095 70.251 68.2105C70.1993 68.1611 70.096 68.1611 69.9926 68.2105C69.7342 68.3095 69.5791 68.5568 69.5791 68.8536ZM67.0982 57.2777C67.0982 57.0798 67.0465 56.8819 66.8915 56.7335C66.8398 56.6346 66.7881 56.5356 66.6848 56.5851C66.5297 56.6346 66.3746 56.684 66.3746 56.8324C66.3746 57.0798 66.4263 57.2777 66.5814 57.4755C66.6848 57.5745 66.7364 57.6734 66.8915 57.624C67.0982 57.5745 67.0982 57.4261 67.0982 57.2777ZM68.9589 65.6381V65.9349C68.9589 65.9844 68.9589 66.0833 69.0623 66.0833C69.1656 66.1328 69.2173 66.0833 69.269 66.0339C69.4757 65.7865 69.5274 65.4402 69.5274 65.1434C69.5274 65.0445 69.4241 64.9455 69.3207 64.9455C69.2173 64.9455 69.1139 64.995 69.0623 65.0939C68.9589 65.2423 68.9072 65.4402 68.9589 65.6381ZM65.5477 58.2671C65.3926 58.2671 65.2376 58.3165 65.1859 58.4649C65.1342 58.6134 65.1859 58.7123 65.2893 58.8112C65.5477 59.0091 65.8578 59.1081 66.1679 59.1081C66.323 59.1081 66.3746 58.9596 66.323 58.8607C66.2196 58.5144 65.9095 58.3165 65.5477 58.2671ZM70.6128 65.5886C70.6128 65.836 70.7162 66.1328 70.8196 66.3307C70.8712 66.4791 71.0263 66.6275 71.233 66.578C71.3881 66.5286 71.3881 66.3801 71.3881 66.1823C71.3881 66.0833 71.233 65.9349 71.2847 65.8854C71.3881 65.6381 71.233 65.4402 71.1297 65.2918C71.0263 65.1929 70.8712 65.1929 70.7679 65.2918L70.7162 65.3413C70.6128 65.3907 70.6128 65.4897 70.6128 65.5886ZM71.5431 64.3519C71.9566 64.3519 72.3184 64.0551 72.4218 63.6593C72.4735 63.4119 72.3184 63.2141 72.1117 63.2635C71.7499 63.3625 71.4398 63.5604 71.233 63.8077C71.1297 63.9067 71.1297 64.0056 71.1814 64.154C71.233 64.2529 71.3881 64.3519 71.5431 64.3519ZM69.9926 67.0727C69.9926 66.8748 69.8892 66.7759 69.6825 66.7759C69.269 66.7759 68.8555 66.9738 68.5971 67.2211C68.442 67.3201 68.442 67.5674 68.5454 67.6664L68.5971 67.7158C68.7522 67.8643 69.1139 67.9137 69.2173 67.7158C69.3207 67.5674 69.4241 67.5674 69.5274 67.518C69.7342 67.419 69.7859 67.2211 69.9926 67.1222V67.0727ZM60.9477 42.1893C60.6376 42.0409 60.3792 41.843 60.1724 41.5957C59.8623 41.1504 59.6039 40.7052 59.3972 40.2105C59.087 39.5179 58.9837 38.7759 59.087 38.0338V37.9349C59.0354 37.8854 59.0354 37.9349 58.9837 37.9844C58.7252 38.1822 58.4151 38.3307 58.1567 38.578C57.5882 38.9738 57.3814 39.6169 57.5365 40.26C57.6399 40.6557 57.8466 41.002 58.0017 41.3978C58.105 41.6946 58.2601 41.942 58.4668 42.1893C58.6219 42.3377 58.7253 42.4861 58.8286 42.684C58.9837 43.0798 59.3455 43.3766 59.759 43.525C59.914 43.5745 60.0691 43.5745 60.2241 43.4755C60.3792 43.3271 60.5859 43.2777 60.8443 43.3271C60.896 43.3271 60.9477 43.3271 60.9994 43.2777C61.5162 42.9314 62.0848 42.684 62.705 42.6345C62.7567 42.6345 62.8084 42.5851 62.8601 42.5851C63.1702 42.4367 63.532 42.3377 63.8938 42.2883H64.6173C65.1342 42.2388 65.5994 42.3377 66.0645 42.4861C66.4263 42.6345 66.8398 42.6345 67.2016 42.4367C67.6668 42.1893 68.1836 42.0409 68.7005 41.9914C68.7522 41.9914 68.9589 41.942 68.8038 41.843C68.7005 41.6451 68.5971 41.4967 68.5971 41.2989C68.3387 40.6063 68.0802 39.8642 67.9252 39.1222C67.8218 38.7264 67.8218 38.2812 67.9252 37.8854C67.9252 37.836 67.9769 37.737 68.0286 37.737C68.1319 37.737 68.1319 37.836 68.1319 37.8854C68.1319 38.4791 68.287 39.0727 68.5971 39.6169C68.7522 39.9632 68.9072 40.3095 69.0623 40.7052C69.1139 40.9526 69.2173 41.1999 69.3207 41.3978C69.4241 41.5462 69.5791 41.7441 69.7859 41.7936C70.0443 41.843 70.3544 41.8925 70.6645 41.843C71.078 41.7936 71.4915 41.6451 71.9566 41.5957C72.06 41.5957 72.1117 41.5462 72.1117 41.4473C72.1117 41.2989 72.1634 41.2989 72.2667 41.3978C72.3184 41.4473 72.3701 41.4967 72.3701 41.5462C72.6285 41.843 73.042 41.9914 73.4555 41.9914C73.9207 41.9914 74.3858 41.942 74.851 41.9914C75.1611 41.9914 75.4712 42.0409 75.7296 42.1398C75.9364 42.2388 76.1948 42.2388 76.4532 42.1398C76.5566 42.1398 76.66 42.0904 76.7633 42.0904C76.815 42.0904 76.8667 42.0904 76.9184 42.0409C76.9184 41.9914 76.8667 41.942 76.815 41.942C76.5049 41.5957 76.2982 41.1999 76.1948 40.7547C76.0914 40.4084 76.0397 40.0621 75.9881 39.7158C75.9364 39.4685 75.8847 39.2211 75.9364 39.0232C76.0397 38.578 76.1431 38.1328 76.2982 37.6875C76.2982 37.6381 76.2982 37.5886 76.4015 37.5391C76.4532 37.5391 76.5049 37.5886 76.5049 37.6381C76.6083 37.8854 76.66 38.1328 76.6083 38.4296C76.5049 38.8254 76.5566 39.2211 76.7117 39.6169C76.9184 40.0621 77.0735 40.5073 77.2285 40.9526C77.3319 41.2989 77.5386 41.5957 77.797 41.843C77.8487 41.942 78.0038 41.942 78.1072 41.942C78.5723 41.8925 79.0892 41.942 79.5026 42.1398C79.7611 42.2388 80.0195 42.3377 80.3296 42.3377C80.433 42.3377 80.5364 42.3872 80.588 42.4367C80.6397 42.4861 80.7431 42.5356 80.8465 42.4861C81.0532 42.4367 81.3116 42.4367 81.5184 42.3872C81.7768 42.3872 82.0352 42.1893 82.0869 41.8925C82.242 41.2494 82.5004 40.6557 82.7071 40.0621C83.0689 39.1716 82.9655 38.2317 82.5004 37.4402C82.2936 37.1434 81.9318 36.9455 81.5184 36.896C81.3116 36.8466 81.1566 37.0444 81.0532 37.1928L80.588 38.2317C80.3813 38.578 80.3296 39.0232 80.3813 39.419V39.8642C80.3813 39.9137 80.3813 39.9632 80.2779 39.9632C80.1746 39.9632 80.1746 39.9137 80.1746 39.8642C79.9678 39.5179 79.8128 39.1222 79.8128 38.7264V38.6769C79.9678 38.0338 80.1746 37.4402 80.4847 36.8466C80.588 36.5992 80.588 36.5992 80.3296 36.5497C80.0195 36.5003 79.6577 36.4508 79.3476 36.3519C79.2442 36.3024 79.0892 36.3024 78.9858 36.2529C78.624 36.2034 78.2622 36.2034 77.9004 36.154C77.5386 36.1045 77.1251 36.1045 76.7633 36.1045C76.2465 36.1045 75.7813 36.1045 75.3162 36.0056C74.4375 35.9066 73.6106 35.8572 72.7319 35.9066C72.6285 35.9066 72.5768 35.9561 72.5252 36.0056C72.3701 36.2034 72.3184 36.4013 72.3184 36.6487C72.3701 36.7971 72.3701 36.9455 72.4218 37.0444C72.4735 37.3907 72.5768 37.7865 72.6802 38.1328C72.9386 38.7759 73.3521 39.3695 73.6105 40.0621C73.6105 40.1116 73.7656 40.161 73.6622 40.26C73.5589 40.3095 73.5072 40.26 73.4555 40.2105L73.4038 40.161C72.7836 39.3695 72.2667 38.4791 71.9049 37.5886C71.7499 37.1928 71.6465 36.7971 71.6982 36.3519C71.7499 36.154 71.6465 36.154 71.4915 36.2034C70.7679 36.3519 69.9926 36.4508 69.2173 36.4508C68.1836 36.5003 67.0982 36.5003 66.0645 36.5497C65.5477 36.5497 65.0308 36.5992 64.514 36.6981C64.2556 36.7971 63.8938 37.1434 63.8938 37.3907C63.8938 37.9349 63.9971 38.4791 64.1005 39.0232C64.1522 39.2706 64.2039 39.5674 64.1522 39.8148C64.1005 40.2105 64.2556 40.6063 64.5657 40.8536C64.6173 40.9031 64.7207 40.9031 64.669 41.002C64.6173 41.0515 64.5657 41.0515 64.514 41.002C64.1522 40.8536 63.8938 40.4579 63.8938 40.0621C63.8938 39.8148 63.8421 39.6169 63.7904 39.3695C63.6353 38.9243 63.4803 38.4296 63.4286 37.9844C63.3252 37.6875 63.3252 37.3907 63.3252 37.0939C63.3769 36.9455 63.3252 36.9455 63.1702 36.9455C62.7567 37.0939 62.2915 37.0939 61.878 37.0444C61.6196 36.995 61.3612 37.0444 61.1028 37.0939C60.7927 37.1928 60.4309 37.3413 60.1207 37.4402C60.0691 37.4402 60.0174 37.4897 60.0174 37.5391C59.8623 37.7865 59.759 38.0833 59.7073 38.3801C59.7073 39.0727 59.8106 39.7653 60.0691 40.4579C60.2241 40.9526 60.4825 41.3978 60.8443 41.7441C60.8443 41.9914 60.896 42.0904 60.9477 42.1893ZM64.2039 62.7688C64.3072 62.571 64.514 62.472 64.669 62.571C64.9275 62.6699 65.0825 62.9172 65.0308 63.1646C65.0825 63.3625 64.9275 63.6098 64.7207 63.7088C64.669 63.7582 64.5657 63.7582 64.514 63.7088C64.4623 63.6593 64.4623 63.6098 64.4623 63.5109C64.514 63.412 64.5657 63.3625 64.5657 63.2635C64.669 63.1151 64.6173 62.9172 64.514 62.8183C64.4106 62.6699 64.3072 62.7688 64.2039 62.7688C64.0488 62.8183 64.1522 62.9172 64.1522 62.9667C64.3589 63.7582 64.669 64.5003 64.8758 65.2423C65.0825 65.9349 65.2893 66.6275 65.5477 67.2706C65.8061 67.9137 66.0645 68.5568 66.2713 69.1999C66.478 69.6946 66.6331 70.2388 66.7881 70.7335C66.8398 70.8819 66.9432 70.8819 67.0465 70.8324C67.4083 70.6346 67.6151 70.2388 67.5117 69.843C67.4083 69.5462 67.2533 69.2494 67.0465 69.0021C66.9949 68.9031 66.8915 68.8536 66.9949 68.7547C67.0982 68.6558 67.2016 68.7052 67.2533 68.7547C67.6151 68.9526 67.8218 69.2989 67.9252 69.6946C68.1319 70.3872 67.7701 71.0798 67.0982 71.3271C66.9949 71.3766 66.9949 71.4261 67.0465 71.4756C67.1499 71.8218 67.3567 72.1187 67.5634 72.4155C67.7185 72.6134 68.0286 72.7123 68.287 72.6628C68.3904 72.6628 68.4937 72.6134 68.4937 72.5144C68.4937 72.4155 68.3904 72.465 68.287 72.4155C68.0802 72.366 67.8735 72.1681 67.8735 71.9208C67.8218 71.7229 67.8735 71.4756 68.0286 71.3271C68.1319 71.2282 68.2353 71.2282 68.3387 71.2777C68.3904 71.3271 68.442 71.3766 68.442 71.4261C68.442 71.4756 68.442 71.525 68.3904 71.525C68.1319 71.5745 68.2353 71.7724 68.2353 71.9208C68.287 72.0692 68.442 72.1187 68.5971 72.1681C68.7522 72.1681 68.7522 72.0197 68.7522 71.9703C68.8555 71.6734 68.9072 71.3271 69.0106 71.0303L69.3207 70.2883C69.3724 70.1893 69.3724 70.1399 69.2173 70.0904C69.0623 70.0409 68.9072 69.942 68.8038 69.843C68.442 69.4968 68.1836 69.0515 67.8735 68.6558C67.8218 68.6063 67.8218 68.5568 67.7701 68.5074C67.6151 68.1611 67.5117 67.8148 67.5117 67.419C67.4083 66.7759 67.4083 66.1328 67.5634 65.5392C67.7701 64.2529 68.7005 63.2141 69.9409 62.7688C70.3544 62.571 70.7162 62.472 71.1814 62.3731C71.5948 62.2741 72.06 62.3731 72.4735 62.571C72.5768 62.6204 72.6285 62.6204 72.6802 62.5215C72.7836 62.1257 72.9386 61.73 73.0937 61.3837C73.5072 60.1964 73.9207 59.0586 74.4375 57.9208C74.9027 56.8819 75.3162 55.7936 75.678 54.7052C75.9364 53.9137 76.2465 53.1717 76.66 52.4791C77.1768 51.6876 77.642 50.8466 78.0555 50.055C78.1588 49.8572 78.3139 49.6593 78.4173 49.4119C78.5206 49.2141 78.624 48.9667 78.7274 48.7688C78.9858 48.3236 79.2442 47.9278 79.451 47.4826C79.6577 47.0374 79.8128 46.5921 80.0195 46.1964C80.433 45.3554 80.7431 44.5144 80.8981 43.5745C81.0015 43.2282 80.9498 43.2282 80.6397 43.3271C80.433 43.3766 80.1746 43.3766 79.9678 43.2777C79.7094 43.1787 79.451 43.0303 79.1925 42.9314C78.5723 42.6345 77.9004 42.5356 77.2285 42.684C76.9184 42.7335 76.6083 42.7335 76.3499 42.8324C75.9881 42.9808 75.6263 42.9314 75.2645 42.783C75.2128 42.783 75.1611 42.7335 75.1094 42.7335C74.7476 42.684 74.3341 42.6345 73.9207 42.6345C73.4038 42.684 72.8353 42.5851 72.3701 42.3872C71.9566 42.1893 71.4915 42.1398 71.078 42.2388C70.6128 42.3377 70.1477 42.3872 69.6825 42.4367C68.9072 42.4367 68.1836 42.6345 67.5117 42.9314C66.9432 43.2282 66.2713 43.2777 65.7027 43.0303C64.9275 42.783 64.0488 42.684 63.2219 42.8324C63.0151 42.8819 62.7567 42.9808 62.5499 42.9808C62.4983 42.9808 62.4466 43.0303 62.4466 43.0303C62.2915 43.1787 62.0848 43.2777 61.878 43.2777C61.6196 43.3271 61.3612 43.3766 61.1544 43.4755C60.9477 43.5745 60.6893 43.6239 60.4825 43.7229C60.2241 43.9702 59.759 44.0197 59.4488 43.8713C59.3455 43.8218 59.2938 43.8713 59.2938 43.9702C59.3455 44.2671 59.3972 44.3165 59.759 44.366C60.1207 44.4155 60.4825 44.5639 60.7927 44.7618C61.6713 45.3059 62.0331 46.1964 62.3432 47.0868C62.5499 47.6805 62.5499 48.3236 62.3949 48.9667C62.1882 49.7088 61.878 50.4508 61.3612 51.0444C61.3095 51.0939 61.2578 51.1929 61.3095 51.2918C61.5679 52.1823 61.7747 53.0727 61.878 53.9632C61.878 54.0621 61.878 54.2105 61.9814 54.26C62.0848 54.3095 62.1365 54.1116 62.1881 54.0621C62.705 53.5179 63.3252 53.1717 64.0488 53.0232C64.7724 52.8254 65.5477 52.9243 66.1679 53.2706C66.5814 53.5179 66.9432 53.8642 67.2533 54.2105C67.3567 54.4084 67.5117 54.6063 67.7185 54.7547C67.8735 54.8536 67.9252 54.9526 68.0286 55.101C68.1836 55.4473 68.287 55.7936 68.287 56.1893C68.287 56.8819 68.1836 57.624 68.0286 58.3165C67.9769 58.6134 67.8735 58.8607 67.7185 59.1081C67.4083 59.8996 66.7364 60.5427 65.9095 60.889C65.1859 61.1363 64.514 61.4826 63.7387 61.2353C63.6353 61.1858 63.6353 61.2847 63.6353 61.3342C63.9454 61.8289 64.0488 62.3236 64.2039 62.7688ZM59.8623 47.4826C59.7073 47.0374 59.5522 46.5427 59.4488 46.048C59.2421 45.3554 59.1387 44.6628 59.1387 43.9208C59.1387 43.8218 59.087 43.7724 59.0354 43.7229C58.7253 43.525 58.4668 43.2777 58.3118 42.9314C58.0533 42.5851 57.7949 42.1893 57.5882 41.843C57.3814 41.4473 57.1747 41.0515 57.0196 40.6063C56.9163 40.3589 56.8646 40.1116 56.9163 39.9137V39.5674C56.968 39.0727 57.1747 38.6275 57.5365 38.3307C57.8983 37.9844 58.3118 37.6875 58.7769 37.4897C59.3455 37.2918 59.8623 37.0939 60.4309 36.896C60.7927 36.7476 61.2061 36.6487 61.6196 36.6487C61.723 36.6487 61.878 36.6487 61.9814 36.6981C62.2915 36.7476 62.6016 36.6981 62.8601 36.5992C63.532 36.4013 64.2556 36.2529 64.9791 36.2034C65.8061 36.1045 66.6331 36.1045 67.4083 36.1045C68.5971 36.1045 69.7859 36.055 70.9746 35.8572C71.2847 35.8077 71.6465 35.7087 71.9566 35.7087C72.6802 35.6098 73.4038 35.5603 74.1274 35.6098C74.4892 35.6098 74.851 35.6593 75.2128 35.7087C75.8847 35.8077 76.6083 35.7582 77.2802 35.8077L78.9858 35.9561C79.2442 35.9561 79.451 36.0056 79.6577 36.1045C79.8128 36.154 79.9678 36.2034 80.1746 36.2034C80.3813 36.2034 80.6397 36.2529 80.8465 36.4013C80.9498 36.4508 81.1049 36.5003 81.2083 36.5003C81.5701 36.4508 81.8802 36.5497 82.1903 36.7476C82.242 36.7476 82.242 36.7971 82.2936 36.7971C82.6038 36.896 82.8622 37.0939 82.9655 37.3907C83.0689 37.5391 83.1206 37.6875 83.224 37.836C83.379 38.1328 83.4824 38.4791 83.4824 38.7759C83.5858 39.5179 83.4307 40.3095 83.0689 41.002C82.9139 41.3978 82.7588 41.7936 82.6554 42.1893C82.5521 42.5851 82.2936 42.9808 81.8802 43.1292C81.8285 43.1292 81.8285 43.1787 81.8285 43.2282C81.8285 43.6239 81.7251 44.0692 81.5701 44.4649C81.5184 44.6628 81.4667 44.9102 81.415 45.108C81.2599 45.5533 81.1049 45.9985 80.8981 46.4437C80.6914 46.9879 80.433 47.5321 80.2262 48.0268C79.7094 49.0162 79.1925 50.0056 78.624 50.9455C78.3139 51.4897 78.0555 51.9844 77.7454 52.5285C77.5386 52.8254 77.3836 53.1222 77.1768 53.419C76.9184 54.0126 76.7117 54.6063 76.5049 55.2494C76.1431 56.3872 75.678 57.525 75.2128 58.6134C74.5409 60.1469 73.9723 61.6805 73.4555 63.2635C73.0937 64.3024 72.6285 65.3413 72.06 66.2812C71.9049 66.5286 71.8016 66.8254 71.6465 67.0727C71.4915 67.3696 71.3881 67.7158 71.2847 68.0621C71.1814 68.3589 71.078 68.6063 70.9229 68.8536C70.7679 69.1505 70.7679 69.4968 70.6128 69.7936C70.251 70.4862 69.9409 71.2282 69.7342 72.0197C69.6308 72.366 69.4757 72.7123 69.269 73.0091C69.1656 73.207 68.9589 73.3554 68.7522 73.4049C68.1836 73.6028 67.5117 73.4049 67.2016 72.9102C66.8398 72.366 66.5814 71.7724 66.3746 71.1293C66.0645 70.2388 65.7544 69.2989 65.3926 68.4084C64.9275 67.2706 64.5657 66.1328 64.2556 64.995C64.1522 64.6487 63.9971 64.3519 63.9454 64.0056C63.7904 63.3625 63.532 62.7194 63.3769 62.0763C63.2219 61.5321 63.0668 60.9879 62.9634 60.4437C62.8084 59.6028 62.5499 58.8112 62.3432 57.9702C62.1881 57.1787 61.9297 56.4367 61.7747 55.6452C61.6196 55.0515 61.5162 54.4084 61.3612 53.8148C61.2578 53.2706 61.2061 52.7264 61.0511 52.1823C60.9477 51.737 60.7927 51.2918 60.6893 50.896C60.5859 50.4013 60.4309 49.9561 60.3275 49.4614C60.2241 48.9667 60.0691 48.472 59.914 47.9278C59.914 47.7794 59.914 47.631 59.8623 47.4826C59.9657 47.5321 60.0691 47.6805 60.1724 47.6805C60.2758 47.73 60.4825 47.8289 60.5342 47.6805C60.6376 47.5321 60.4309 47.4331 60.3792 47.3837C60.0174 47.1363 60.0174 47.1363 59.8623 47.4826Z" fill="#127780"/>
<path d="M71.1297 49.8077C71.1297 49.7087 71.1297 49.6098 71.0263 49.5603C70.9229 49.5109 70.8713 49.6098 70.8196 49.6593C70.7679 49.7582 70.6645 49.8572 70.6128 50.0056C70.5611 50.1045 70.5611 50.2034 70.6645 50.3024C70.7679 50.3519 70.9229 50.3519 70.9746 50.2529C71.078 50.1045 71.1297 49.9561 71.1297 49.8077ZM72.887 50.154C73.1454 50.154 73.2488 50.0056 73.1971 49.9066C73.042 49.6593 72.8353 49.5109 72.5769 49.4614C72.4735 49.4614 72.3701 49.4614 72.3184 49.5603C72.2668 49.7087 72.3184 49.8572 72.4735 49.9066H72.5252C72.5769 49.9066 72.5769 49.9066 72.5769 49.9561C72.5769 50.1045 72.7836 50.1045 72.887 50.154ZM72.6285 44.4649C72.5252 44.4649 72.4735 44.4649 72.3701 44.5144C72.2151 44.5639 72.1117 44.6133 72.0083 44.7123C71.905 44.8112 72.06 44.8607 72.0083 44.9596C71.9566 45.0586 72.0083 45.108 72.1117 45.1575C72.1634 45.207 72.2668 45.207 72.3701 45.207C72.5252 45.1575 72.6802 45.108 72.7836 45.0091C72.887 44.9596 72.9387 44.8112 72.887 44.7123C72.887 44.5639 72.7836 44.4649 72.6285 44.4649ZM73.7656 45.1575C73.6623 45.1575 73.5072 45.207 73.4555 45.3059C73.4038 45.4049 73.4038 45.5533 73.4555 45.6522C73.5072 45.7511 73.6106 45.8501 73.7139 45.949C73.869 46.048 74.024 46.048 74.1791 45.949C74.1791 45.949 74.1791 45.8996 74.2308 45.8996C74.2825 45.5533 74.1274 45.2564 73.7656 45.1575ZM73.9207 47.631C73.6623 47.631 73.5072 47.7794 73.5072 48.0762C73.5072 48.4225 73.6622 48.6204 73.9724 48.6204C74.1791 48.6204 74.3858 48.4225 74.3858 48.2246V48.1752C74.3858 47.8784 74.1791 47.6805 73.9207 47.631ZM71.0263 45.5533C71.0263 45.4049 70.9746 45.3059 70.8196 45.2564C70.6645 45.207 70.5095 45.207 70.4061 45.3059C70.251 45.4543 70.096 45.6027 70.0443 45.8006C69.9926 45.949 70.1993 46.1964 70.3027 46.1964C70.7162 46.1469 70.9746 45.8996 71.0263 45.5533ZM69.6825 48.1257C69.6825 48.5215 69.9409 48.7193 70.251 48.5709C70.5095 48.3236 70.6128 47.9773 70.4578 47.631C70.3544 47.4826 70.1477 47.4331 69.9926 47.5321C69.9926 47.5321 69.9409 47.5321 69.9409 47.5815C69.7859 47.6805 69.6825 47.9278 69.6825 48.1257ZM72.3184 46.2953C72.1634 46.2953 72.0083 46.3448 71.905 46.4932C71.8016 46.5921 71.7499 46.7405 71.6982 46.8395C71.6465 47.0374 71.6982 47.2352 71.8533 47.3837C72.0083 47.4331 72.2151 47.3837 72.3701 47.2352C72.5252 47.0868 72.6285 46.889 72.6285 46.6416C72.6285 46.4932 72.5252 46.3448 72.3184 46.2953ZM76.4016 47.1858C76.4016 48.2246 76.0914 49.2635 75.4195 50.055C75.1611 50.4508 74.7993 50.7971 74.3858 51.0444C74.024 51.2423 73.6106 51.3413 73.1971 51.2918C72.6285 51.3413 72.06 51.2918 71.4915 51.1928C71.2331 51.1434 71.0263 51.0444 70.8196 50.9455C70.5611 50.8466 70.3027 50.7476 70.096 50.6487C69.6308 50.3519 69.2173 50.0056 68.9072 49.6098C68.8039 49.5109 68.7005 49.3625 68.5971 49.2635C68.287 48.9667 68.1319 48.5215 68.1319 48.1257C68.0803 47.2352 68.287 46.3943 68.8039 45.6522C69.269 44.9596 69.8892 44.4155 70.6645 44.0692C70.9746 43.9208 71.2847 43.8713 71.6465 43.8218C71.905 43.7723 72.1117 43.6734 72.3701 43.6239C72.7319 43.6239 73.1454 43.7229 73.4555 43.8713C73.8173 44.0692 74.2308 44.2176 74.5926 44.4155C74.9544 44.5639 75.3162 44.7617 75.678 45.0091C76.2465 45.5533 76.5049 46.2458 76.4532 46.9879C76.4016 47.0868 76.4016 47.1363 76.4016 47.1858ZM70.096 53.7158C70.096 53.9632 70.0443 54.161 69.9926 54.4084C69.9926 54.5073 69.8892 54.6063 69.7859 54.5568C69.6308 54.5568 69.6308 54.4579 69.6308 54.3589C69.6308 54.0126 69.5791 53.7158 69.4758 53.3695C69.4241 52.9738 69.0106 52.6769 68.5971 52.7759C68.3904 52.7759 68.1319 52.7759 67.9252 52.8254C67.5117 52.8748 67.1499 52.6275 67.0982 52.2317V52.0833C67.0982 52.0338 67.0982 51.9844 67.1499 51.9349C67.2016 51.9349 67.2533 51.9349 67.2533 51.9844L67.305 52.0338C67.5634 52.4791 67.9769 52.3801 68.3387 52.2812C68.7005 52.1822 69.114 52.2317 69.4241 52.4296C69.6308 52.5285 69.7859 52.6769 69.8376 52.8748C69.8892 53.0232 69.9926 53.1716 70.0443 53.3201C70.096 53.4685 70.1477 53.6169 70.096 53.7158ZM65.4443 47.3837C65.4443 46.9879 65.5994 46.6416 65.9095 46.3943C66.3747 46.048 66.2196 45.7511 65.9095 45.5038C65.8578 45.4543 65.8061 45.4049 65.8061 45.3059C65.8578 45.207 65.9612 45.2564 66.0129 45.3059C66.478 45.4543 66.7364 45.949 66.5814 46.3943C66.5297 46.4932 66.478 46.5921 66.4263 46.6416C66.323 46.79 66.2196 46.9384 66.1679 47.0868C66.0645 47.3837 66.1162 47.7299 66.4263 47.9278C66.478 47.9773 66.5814 48.0268 66.5297 48.1257C66.478 48.2246 66.3747 48.2741 66.2713 48.2741C65.8578 48.1752 65.496 47.8289 65.4443 47.3837ZM62.8084 52.1328V52.2317C62.8084 52.2812 62.9118 52.3801 62.8084 52.3801C62.705 52.4296 62.705 52.3307 62.6533 52.2812C62.55 52.0833 62.4983 51.836 62.6533 51.6381C62.8084 51.3413 63.0668 51.0444 63.3769 50.896C63.532 50.7971 63.7387 50.7971 63.8938 50.8466C63.9455 50.8466 63.9971 50.896 64.0488 50.8466C64.1005 50.7971 64.1005 50.7476 64.0488 50.6981C63.9971 50.6487 63.9455 50.6487 63.8938 50.6487H63.7904C63.7387 50.6487 63.687 50.6981 63.6353 50.6487C63.5837 50.5992 63.6353 50.5497 63.687 50.5003C63.7904 50.3519 63.9971 50.3024 64.2039 50.4013C64.3589 50.4508 64.4623 50.6487 64.4623 50.7971C64.4106 51.0939 64.4106 51.4402 64.4623 51.737C64.514 52.0833 64.3072 52.3801 64.0488 52.5285C63.8938 52.6275 63.7387 52.6769 63.532 52.7759C63.4803 52.8254 63.3252 52.8254 63.2735 52.7264C63.2219 52.6275 63.2735 52.578 63.3252 52.5285C63.4803 52.4296 63.5837 52.2812 63.7387 52.2317C63.9971 52.1328 64.1522 51.7865 64.0488 51.5391C63.9971 51.3413 63.7904 51.1928 63.5837 51.2423C63.532 51.2423 63.4803 51.2918 63.4286 51.2918C63.0668 51.3907 62.8084 51.737 62.8084 52.1328ZM63.6353 44.8112V44.9102C63.6353 45.0091 63.6353 45.207 63.7387 45.207C63.8938 45.2564 63.9455 45.0586 64.0488 45.0091C64.1005 44.9596 64.0488 44.9102 63.9971 44.9102C63.8421 44.7123 63.687 44.4649 63.6353 44.2176C63.6353 44.1186 63.6353 44.0692 63.687 43.9702C63.7904 44.1186 63.7904 44.3165 63.8421 44.4649C63.8938 44.6133 64.0488 44.7123 64.2039 44.7123C64.514 44.7617 64.7724 44.5639 64.8241 44.3165C64.8241 44.2176 64.8241 44.0692 64.7724 43.9702C64.669 43.8218 64.6174 43.6239 64.5657 43.4755C64.514 43.3766 64.5657 43.2282 64.669 43.1787C64.7724 43.1292 64.8241 43.2282 64.8758 43.2776C64.9792 43.4261 65.1342 43.6239 65.2376 43.7723C65.496 44.1681 65.3409 44.6628 64.9275 44.9102C64.8241 44.9596 64.7724 45.0091 64.669 45.0091C64.514 45.0586 64.3589 45.0586 64.3072 45.2564C64.2039 45.5038 63.9455 45.6522 63.687 45.5533C63.6353 45.5533 63.532 45.5038 63.4803 45.4543C63.3252 45.2564 63.3769 45.0091 63.532 44.8607C63.5837 44.8607 63.5837 44.8112 63.6353 44.8112ZM70.5095 57.0798C70.4578 57.1787 70.4061 57.3271 70.3544 57.4755C70.3544 57.5745 70.3544 57.6239 70.5095 57.6734C70.9229 57.7229 71.1297 57.9702 70.9746 58.3165C70.8196 58.6133 70.7679 59.0091 70.8713 59.3059V59.6522C70.8713 59.7512 70.7679 59.8501 70.6645 59.8501C70.5611 59.8501 70.4061 59.8006 70.4061 59.6522C70.3544 59.4049 70.251 59.1575 70.1477 58.9596C70.0443 58.7618 70.096 58.5144 70.251 58.366C70.3544 58.2176 70.4061 58.1681 70.1993 58.0692C70.0443 58.0197 69.9409 57.8713 69.9926 57.7229C69.9926 57.3766 70.1993 57.1292 70.5095 57.0798ZM66.323 63.4614C66.3747 63.1151 66.3747 62.8678 66.7881 62.8183C66.9949 62.7688 67.2016 62.6204 67.3567 62.4225C67.46 62.2741 67.5634 62.1752 67.7185 62.1257C67.9252 62.0762 68.0803 62.1752 68.0286 62.3236C68.0286 62.7194 67.8218 63.0656 67.5117 63.2635C67.3567 63.313 67.2016 63.3625 67.0466 63.3625C66.8915 63.3625 66.8398 63.4119 66.8398 63.5603C66.8398 63.7088 66.8915 63.9066 66.8915 64.055C66.8915 64.154 66.9432 64.2529 66.7881 64.3024C66.6848 64.3024 66.5814 64.3024 66.5297 64.2035C66.478 64.0056 66.3747 63.7582 66.323 63.4614ZM69.2173 61.7794C69.2173 61.5321 69.3724 61.2847 69.6308 61.1858C69.8376 61.0868 70.1477 61.1363 70.251 61.3837C70.3027 61.4826 70.3544 61.4826 70.4578 61.4331C70.6128 61.3342 70.7679 61.2847 70.9746 61.2353C71.4398 61.1858 71.905 61.3342 72.2151 61.73C72.2668 61.7794 72.3184 61.8289 72.3184 61.9278C72.3701 62.0268 72.3184 62.0762 72.2151 62.1257C72.1634 62.1752 72.06 62.1752 72.0083 62.1257C71.905 62.0762 71.8533 61.9773 71.8016 61.8784C71.5948 61.5815 71.1814 61.5321 70.8713 61.6805C70.5611 61.7794 70.3027 62.0268 70.1993 62.3236C70.1993 62.3731 70.1477 62.4225 70.096 62.4225C70.0443 62.4225 69.9926 62.3731 69.9926 62.3236C69.9409 62.1752 69.9926 62.0268 70.0443 61.9278C70.1477 61.8289 70.0443 61.73 69.9926 61.6805C69.9409 61.5815 69.7859 61.5815 69.7342 61.631C69.5274 61.73 69.4758 61.9773 69.5791 62.1752C69.5791 62.2247 69.6825 62.2741 69.5791 62.3236C69.4758 62.3731 69.4241 62.3236 69.3724 62.2247C69.2173 62.0762 69.1656 61.9278 69.2173 61.7794ZM74.696 52.9738C74.7476 53.419 74.4375 53.8642 73.9724 54.0126C73.869 54.0621 73.7139 54.1116 73.6106 54.161C73.4038 54.2105 73.3005 54.4084 73.3521 54.6063V54.6557C73.3521 54.7547 73.4555 54.9526 73.2488 55.002C73.0937 55.0515 72.9903 54.9031 72.9387 54.7547C72.7836 54.3589 72.9387 53.9632 73.3521 53.7653C73.4038 53.7653 73.4555 53.7158 73.5072 53.7158C73.869 53.6663 74.1791 53.419 74.3342 53.0727C74.3858 52.9243 74.3858 52.7759 74.3858 52.6769C74.3858 52.6275 74.3858 52.5285 74.4375 52.5285C74.5409 52.4791 74.5409 52.578 74.5926 52.6275C74.696 52.6769 74.7476 52.8254 74.696 52.9738ZM76.7634 43.3271C76.9701 43.3271 77.1252 43.4261 77.2285 43.5745C77.3319 43.6734 77.3836 43.8218 77.4353 43.9702C77.4869 44.2176 77.642 44.4155 77.9004 44.4649C78.2105 44.5639 78.4173 44.8607 78.4173 45.1575C78.4173 45.2564 78.4173 45.3554 78.3139 45.4049C78.1589 45.4543 78.1072 45.3554 78.1072 45.2564C78.0555 44.9596 77.7454 44.9596 77.5386 44.8607C77.2285 44.7617 77.0218 44.4649 76.9701 44.1681C76.9701 44.1186 76.9701 44.0692 76.9184 44.0197C76.815 43.6734 76.815 43.6239 76.4016 43.6734C76.2982 43.6734 76.2982 43.6239 76.3499 43.5745C76.4016 43.3766 76.5566 43.2776 76.7634 43.3271ZM72.9903 56.5356C72.9903 56.3377 72.8353 56.2388 72.6285 56.1893C72.3184 56.1893 72.06 56.3872 72.06 56.6345C72.1117 56.8819 72.3184 57.0798 72.6285 57.0798C72.7836 57.0798 72.9903 56.783 72.9903 56.5356ZM71.6982 56.7335C71.6982 56.4367 71.905 56.1893 72.2151 56.1398C72.2668 56.0904 72.3701 56.0904 72.3184 55.9914C72.3184 55.942 72.3701 55.942 72.4218 55.942C72.7836 55.942 73.1454 56.0904 73.3521 56.3872C73.4038 56.783 73.2488 57.1787 72.887 57.4261C72.5252 57.5745 72.1117 57.4261 71.905 57.1292C71.8016 56.9808 71.6982 56.8819 71.6982 56.7335ZM68.4937 44.366C68.2353 44.366 68.0803 44.2176 68.0286 43.9702C67.9769 43.7723 68.0286 43.5745 68.1836 43.4261C68.2353 43.3271 68.3387 43.3271 68.4421 43.3766C68.5454 43.4261 68.5454 43.525 68.4421 43.6239C68.3387 43.6734 68.3904 43.7723 68.3904 43.8713C68.3904 43.9208 68.4937 43.9208 68.5454 43.9208C68.6488 43.9208 68.6488 43.8218 68.7005 43.7723C68.7522 43.6734 68.8555 43.5745 68.9589 43.5745C69.0623 43.5745 69.1656 43.6239 69.2173 43.6734C69.269 43.7723 69.269 43.8713 69.2173 43.9702C69.0106 44.2176 68.7522 44.366 68.4937 44.366ZM77.6937 47.9773C77.7971 48.0268 77.8487 47.9278 77.9004 47.8289C77.9521 47.7299 77.9521 47.631 77.8487 47.5815C77.7454 47.5321 77.6937 47.5815 77.5903 47.5815C77.5386 47.631 77.4869 47.6805 77.4353 47.631C77.3836 47.5815 77.4353 47.5321 77.4353 47.4331C77.5386 47.2352 77.7971 47.1858 78.0038 47.2847C78.0555 47.2847 78.0555 47.3342 78.1072 47.3342C78.3656 47.631 78.3139 48.0268 78.0038 48.2741C77.9521 48.2741 77.9521 48.3236 77.9004 48.3236C77.7454 48.3731 77.5386 48.3731 77.3836 48.2246C77.3319 48.1752 77.2802 48.0762 77.3319 47.9773C77.4869 48.0268 77.5903 47.9773 77.6937 47.9773ZM71.7499 55.5957C71.7499 55.7441 71.6982 55.8925 71.5948 55.942C71.5432 55.9914 71.4398 55.9914 71.3364 55.942C71.2331 55.8925 71.2847 55.7936 71.2847 55.7441C71.2847 55.6946 71.3364 55.6946 71.3364 55.6451C71.3881 55.5462 71.4398 55.4473 71.3364 55.3978C71.2331 55.3483 71.1297 55.3978 71.0263 55.4473C70.9746 55.4967 70.9229 55.5957 70.8713 55.5462C70.7679 55.4967 70.8196 55.3978 70.8713 55.2989C71.0263 55.101 71.2331 55.0515 71.4398 55.101C71.6465 55.1999 71.8016 55.3978 71.7499 55.5957ZM79.0375 44.1681C79.0375 43.9208 79.1926 43.7229 79.451 43.7229H79.5027C79.5543 43.7229 79.606 43.7723 79.6577 43.8218C79.6577 43.8713 79.6577 43.9208 79.5543 43.9702C79.451 44.0197 79.3993 44.0692 79.451 44.1681C79.5027 44.267 79.606 44.267 79.7094 44.267C79.8128 44.267 79.9161 44.1186 79.9678 44.3165C80.0195 44.4649 79.9161 44.5639 79.7611 44.6133C79.5027 44.7123 79.2442 44.6133 79.0892 44.4155C79.0375 44.3165 79.0375 44.267 79.0375 44.1681ZM66.5297 68.26C66.6848 68.2105 66.8398 68.26 66.8915 68.4084V68.4579C66.9949 68.7547 66.9949 69.0515 66.8398 69.2989C66.7881 69.3483 66.7364 69.3978 66.6848 69.3483C66.5814 69.2989 66.5297 69.1999 66.5297 69.101C66.5814 68.9526 66.5814 68.7547 66.5814 68.6063C66.6331 68.5073 66.6331 68.3589 66.5297 68.26ZM66.5814 50.5497C66.3747 50.5497 66.2196 50.4013 66.2196 50.2529C66.1679 50.1045 66.2713 49.9066 66.4263 49.8077C66.478 49.8077 66.5297 49.7582 66.5814 49.8077C66.6331 49.8572 66.5814 49.9066 66.5814 49.9066C66.5297 49.9561 66.5297 50.055 66.5297 50.1045C66.5297 50.2034 66.5814 50.2529 66.6848 50.154C66.7881 50.1045 66.8398 50.0056 66.9432 50.154C66.9949 50.2529 66.9949 50.4013 66.8915 50.4508C66.7364 50.5497 66.6331 50.5497 66.5814 50.5497ZM72.3184 58.5639V58.4155C72.3701 58.3165 72.3701 58.2176 72.4735 58.2176C72.5769 58.2176 72.5252 58.366 72.5252 58.4155C72.5252 58.4649 72.5769 58.5144 72.5769 58.5639C72.6285 58.6628 72.7319 58.7123 72.7836 58.5639C72.8353 58.5144 72.8353 58.366 72.9903 58.4649C73.0937 58.5144 73.0937 58.6133 73.042 58.6628C72.9903 58.8607 72.8353 59.0091 72.6285 59.0091C72.4218 58.9596 72.3184 58.7618 72.3184 58.5639ZM74.4892 57.0303C74.5409 57.0303 74.6443 57.0798 74.6443 57.1292C74.6443 57.2282 74.5926 57.2777 74.5409 57.2777C74.3858 57.3271 74.2825 57.3766 74.1274 57.4755C74.024 57.5745 74.024 57.4755 74.024 57.4261C74.024 57.1787 74.2308 57.0303 74.4892 57.0303C74.4892 56.9808 74.4892 56.9808 74.4892 57.0303Z" fill="#127780"/>
<path d="M27.5833 82.392C27.5833 81.8735 28.4615 81.8421 28.4861 82.392C28.5682 84.2145 28.3958 85.7228 28.4533 87.5453C28.4697 88.0874 27.5833 88.1188 27.5587 87.5453C27.5176 86.5084 27.5669 85.8721 27.5751 84.8351C27.0006 84.8744 26.5574 84.733 26.0075 84.8665C25.991 85.8799 26.0075 86.5005 25.9828 87.5139C25.9664 88.1267 25.0718 88.1031 25.0882 87.5139C25.1375 85.7228 25.0472 84.2459 25.1211 82.4548C25.1457 81.8892 26.0403 81.8735 26.0157 82.4548C25.991 83.044 26.0157 83.3975 26.0157 83.9945C26.582 83.9081 27.0006 84.0574 27.5751 83.9867C27.5833 83.3739 27.5833 83.0047 27.5833 82.392ZM31.906 81.9521C33.4982 81.9599 33.5393 84.3166 33.6131 85.4164C33.6706 86.2413 32.9976 88.5352 31.3232 87.8674C30.1496 87.3961 30.0429 85.5578 30.1414 84.513C30.2234 83.6489 30.4697 82.3841 31.4135 82.0228C31.4628 81.9835 31.7172 81.9521 31.7993 81.9521H31.8731H31.906ZM32.7185 85.4164C32.7185 84.7644 32.5462 82.6984 31.9142 82.8162C30.8308 83.0126 31.0031 85.9271 31.2904 86.6262C31.4874 87.1054 32.1112 87.5139 32.4723 86.7519C32.6611 86.3513 32.7185 85.8799 32.7185 85.4164ZM37.468 87.0347C38.1164 86.9876 38.1492 87.836 37.468 87.891H35.1781C35.0386 87.9381 34.8662 87.8988 34.817 87.7653C34.7677 87.6789 34.7677 87.5768 34.8088 87.4903C34.9401 85.7621 34.7923 84.1595 34.7677 82.4313C34.7595 81.8499 35.6541 81.8185 35.6623 82.4313C35.687 84.1202 35.8265 85.3536 35.7116 87.0347H37.468ZM41.8727 82.4784C41.5116 83.3504 41.1341 84.081 40.7319 84.9372C40.7237 85.8406 40.7155 86.5948 40.7155 87.4982C40.7155 88.0481 39.8127 88.056 39.8127 87.4982C39.8127 86.5634 39.8291 85.7778 39.8291 84.843V84.8273C39.55 83.9945 39.2381 83.3268 38.8278 82.5491C38.5651 82.0463 39.3202 81.685 39.6485 82.282C39.9932 82.9105 40.0671 83.1226 40.3297 83.7903C40.6334 83.1697 40.7237 82.9733 40.9945 82.337C41.2408 81.7635 42.0615 82.007 41.8727 82.4784ZM50.2472 87.5689C50.3375 87.9067 49.5496 88.0481 49.4593 87.7103C49.2541 86.9404 48.9751 86.2177 48.5893 85.5107C48.3021 85.5657 48.0723 85.5814 47.7522 85.5578C47.7522 86.2963 47.7604 86.9719 47.7686 87.6867C47.7686 88.0324 46.8658 88.0324 46.874 87.6867C46.8986 86.0449 46.8658 84.1595 46.8986 82.392C46.8493 82.2427 46.9396 82.0463 47.153 82.0306C47.785 81.9913 49.0325 81.9363 49.5578 82.3448C50.0174 82.6984 50.2883 83.3032 50.2554 83.8689C50.2226 84.5837 49.8779 85.0315 49.3772 85.2829C49.763 86.0056 50.042 86.7833 50.2472 87.5689ZM47.7522 84.6623C48.6632 84.7016 49.3854 84.568 49.3608 83.7196C49.3362 82.9419 48.6468 82.8555 47.785 82.8712C47.7686 83.6725 47.7604 83.8531 47.7522 84.6623ZM53.6261 81.9521C55.2183 81.9599 55.2593 84.3166 55.3332 85.4164C55.3907 86.2413 54.7176 88.5352 53.0433 87.8674C51.8696 87.3961 51.763 85.5578 51.8614 84.513C51.9435 83.6489 52.1897 82.3841 53.1336 82.0228C53.1828 81.9835 53.4373 81.9521 53.5194 81.9521H53.5932H53.6261ZM54.4386 85.4164C54.4386 84.7644 54.2662 82.6984 53.6343 82.8162C52.5509 83.0126 52.7232 85.9271 53.0105 86.6262C53.2075 87.1054 53.8312 87.5139 54.1924 86.7519C54.3811 86.3513 54.4386 85.8799 54.4386 85.4164ZM59.1881 87.0347C59.8364 86.9876 59.8693 87.836 59.1881 87.891H56.8982C56.7586 87.9381 56.5863 87.8988 56.537 87.7653C56.4878 87.6789 56.4878 87.5768 56.5288 87.4903C56.6602 85.7621 56.5124 84.1595 56.4878 82.4313C56.4796 81.8499 57.3742 81.8185 57.3824 82.4313C57.407 84.1202 57.5466 85.3536 57.4317 87.0347H59.1881ZM63.9786 87.0347C64.627 86.9876 64.6598 87.836 63.9786 87.891H61.6887C61.5491 87.9381 61.3768 87.8988 61.3275 87.7653C61.2783 87.6789 61.2783 87.5768 61.3193 87.4903C61.4507 85.7621 61.3029 84.1595 61.2783 82.4313C61.2701 81.8499 62.1647 81.8185 62.1729 82.4313C62.1975 84.1202 62.3371 85.3536 62.2222 87.0347H63.9786ZM68.4243 87.0818C69.0317 87.019 69.0399 87.9146 68.4243 87.9381C67.7021 87.9695 66.6187 87.9617 65.8882 88.001C65.8144 88.0088 65.7651 87.9853 65.7159 87.9617C65.6092 87.9303 65.5271 87.8517 65.5353 87.7103C65.642 85.9349 65.5025 84.1517 65.5599 82.3763C65.5107 82.2192 65.601 82.0228 65.8144 82.0385C66.553 82.0777 67.6446 82.0856 68.3833 82.062C68.9578 82.0463 68.966 82.9026 68.3833 82.9183C67.7431 82.934 67.1029 82.9183 66.471 82.9026C66.4546 83.7117 66.4463 83.1147 66.4628 83.9238C66.906 84.0652 67.4477 84.0024 67.9155 83.9867C68.5228 83.9631 68.531 84.898 67.9155 84.9137C67.4559 84.9215 66.9306 84.9844 66.471 84.8822C66.471 85.5028 66.4956 86.5162 66.4628 87.1368C67.1194 87.1211 67.776 87.1525 68.4243 87.0818ZM73.4282 87.5689C73.5185 87.9067 72.7306 88.0481 72.6403 87.7103C72.4351 86.9404 72.1561 86.2177 71.7703 85.5107C71.4831 85.5657 71.2533 85.5814 70.9332 85.5578C70.9332 86.2963 70.9414 86.9719 70.9496 87.6867C70.9496 88.0324 70.0468 88.0324 70.055 87.6867C70.0796 86.0449 70.0468 84.1595 70.0796 82.392C70.0303 82.2427 70.1206 82.0463 70.334 82.0306C70.966 81.9913 72.2135 81.9363 72.7388 82.3448C73.1984 82.6984 73.4693 83.3032 73.4365 83.8689C73.4036 84.5837 73.0589 85.0315 72.5583 85.2829C72.944 86.0056 73.2231 86.7833 73.4282 87.5689ZM70.9332 84.6623C71.8442 84.7016 72.5665 84.568 72.5418 83.7196C72.5172 82.9419 71.8278 82.8555 70.966 82.8712C70.9496 83.6725 70.9414 83.8531 70.9332 84.6623ZM77.0615 84.9687C77.6114 85.495 78.3172 86.2491 78.0136 87.0504C77.7181 87.836 76.4706 88.1031 75.7729 87.8596C75.0589 87.6082 74.6403 86.909 74.7224 86.3041C74.8126 85.6678 75.658 85.8564 75.6826 86.4455C75.7155 87.3882 77.1025 87.1368 77.1107 86.6655C77.1189 86.2727 76.9138 86.0763 76.684 85.8328C76.3474 85.495 75.9781 85.2043 75.6744 84.8351C75.2969 84.3795 74.9604 83.9788 74.9768 83.0754C75.0096 81.2686 78.5881 81.63 78.0218 83.586C77.8494 84.1831 77.004 83.9945 77.1518 83.4446C77.4062 82.5098 75.8714 82.4313 75.8714 83.3032C75.8714 83.5546 75.9617 83.7353 76.093 83.9553C76.3474 84.3952 76.6922 84.6151 77.0615 84.9687ZM85.8217 82.5177C86.1747 82.9105 86.3306 83.5153 86.3142 84.0181C86.2978 84.5366 86.1747 85.0551 85.7561 85.4007C85.2965 85.7857 84.4429 85.6364 83.8766 85.5971C83.8766 86.3198 83.8684 87.0426 83.8684 87.7574C83.8684 88.1031 82.982 88.1031 82.982 87.7574C82.982 85.9742 83.023 84.1752 82.9984 82.3448C82.9984 82.282 83.023 82.2349 83.0476 82.1956C83.0804 82.0935 83.1707 82.0149 83.3103 82.007C84.0489 81.9992 85.2965 81.9206 85.8217 82.5177ZM85.2554 84.568C85.5181 84.1988 85.5673 83.5546 85.1241 83.1383C84.7712 82.8162 84.3526 82.8319 83.893 82.8555C83.893 83.6803 83.893 83.9003 83.8848 84.7487C84.3116 84.788 84.9682 84.9765 85.2554 84.568ZM88.8148 82.4548C88.8723 84.2538 88.9625 85.7385 88.8394 87.5375C88.7984 88.1345 87.9038 88.1109 87.9448 87.5375C88.0761 85.7385 87.9448 84.2538 87.9202 82.4548C87.912 81.8578 88.8066 81.8971 88.8148 82.4548ZM92.9405 87.0976C93.5561 87.1761 93.5232 87.9853 92.9405 87.9617C92.1936 87.9303 91.2169 87.9617 90.4865 87.9146C90.3141 87.8988 90.2238 87.7732 90.2156 87.6475C90.1992 87.6082 90.191 87.561 90.2074 87.5061C90.8804 85.7542 91.5863 84.5287 92.2839 82.8555C91.775 82.8712 91.5042 82.8555 90.9953 82.879C90.3962 82.9105 90.3305 82.0542 90.9953 82.0228C91.6355 81.9913 92.5301 82.0149 93.1703 81.9835C93.4083 81.9678 93.4904 82.1956 93.4165 82.3527C92.7435 84.1124 92.0295 85.5186 91.4221 87.0661C92.0377 87.074 92.3167 87.019 92.9405 87.0976ZM97.5833 87.0976C98.1988 87.1761 98.166 87.9853 97.5833 87.9617C96.8364 87.9303 95.8597 87.9617 95.1292 87.9146C94.9569 87.8988 94.8666 87.7732 94.8584 87.6475C94.842 87.6082 94.8338 87.561 94.8502 87.5061C95.5232 85.7542 96.229 84.5287 96.9267 82.8555C96.4178 82.8712 96.147 82.8555 95.6381 82.879C95.039 82.9105 94.9733 82.0542 95.6381 82.0228C96.2783 81.9913 97.1729 82.0149 97.8131 81.9835C98.0511 81.9678 98.1332 82.1956 98.0593 82.3527C97.3863 84.1124 96.6722 85.5186 96.0649 87.0661C96.6805 87.074 96.9595 87.019 97.5833 87.0976ZM102.349 87.0818C102.957 87.019 102.965 87.9146 102.349 87.9381C101.627 87.9695 100.544 87.9617 99.813 88.001C99.7392 88.0088 99.6899 87.9853 99.6407 87.9617C99.534 87.9303 99.4519 87.8517 99.4601 87.7103C99.5668 85.9349 99.4273 84.1517 99.4847 82.3763C99.4355 82.2192 99.5258 82.0228 99.7392 82.0385C100.478 82.0777 101.569 82.0856 102.308 82.062C102.883 82.0463 102.891 82.9026 102.308 82.9183C101.668 82.934 101.028 82.9183 100.396 82.9026C100.379 83.7117 100.371 83.1147 100.388 83.9238C100.831 84.0652 101.372 84.0024 101.84 83.9867C102.448 83.9631 102.456 84.898 101.84 84.9137C101.381 84.9215 100.855 84.9844 100.396 84.8822C100.396 85.5028 100.42 86.5162 100.388 87.1368C101.044 87.1211 101.701 87.1525 102.349 87.0818ZM107.353 87.5689C107.443 87.9067 106.655 88.0481 106.565 87.7103C106.36 86.9404 106.081 86.2177 105.695 85.5107C105.408 85.5657 105.178 85.5814 104.858 85.5578C104.858 86.2963 104.866 86.9719 104.874 87.6867C104.874 88.0324 103.972 88.0324 103.98 87.6867C104.004 86.0449 103.972 84.1595 104.004 82.392C103.955 82.2427 104.045 82.0463 104.259 82.0306C104.891 81.9913 106.138 81.9363 106.664 82.3448C107.123 82.6984 107.394 83.3032 107.361 83.8689C107.328 84.5837 106.984 85.0315 106.483 85.2829C106.869 86.0056 107.148 86.7833 107.353 87.5689ZM104.858 84.6623C105.769 84.7016 106.491 84.568 106.467 83.7196C106.442 82.9419 105.753 82.8555 104.891 82.8712C104.874 83.6725 104.866 83.8531 104.858 84.6623ZM109.886 82.4548C109.944 84.2538 110.034 85.7385 109.911 87.5375C109.87 88.1345 108.975 88.1109 109.017 87.5375C109.148 85.7385 109.017 84.2538 108.992 82.4548C108.984 81.8578 109.878 81.8971 109.886 82.4548ZM114.677 87.4982C114.792 87.9853 113.971 88.1581 113.823 87.7103C113.717 87.3804 113.7 87.1761 113.643 86.8305C113.118 86.854 112.724 86.8462 112.198 86.799C112.108 87.1211 112.051 87.3647 111.96 87.6789C111.813 88.1816 111 87.9695 111.164 87.3568C111.64 85.5735 111.977 84.1202 112.494 82.3448C112.494 82.2741 112.617 81.9521 113.052 81.9521C113.446 81.9521 113.602 82.1249 113.651 82.3213C114.283 84.0967 114.242 85.6835 114.677 87.4982ZM112.428 85.9506C112.88 85.9899 113.019 85.9899 113.471 85.982C113.306 84.9765 113.331 84.3559 113.077 83.3739C112.797 84.3638 112.691 84.9608 112.428 85.9506Z" fill="#127780"/>
<path d="M37.7622 96.4953C37.759 96.4953 37.7334 96.4922 37.7078 96.4922C37.6629 96.4922 37.6405 96.5076 37.6341 96.5474C37.6309 96.5689 37.6309 96.5934 37.6373 96.6118C37.6629 96.7068 38.1593 98.6716 38.1849 98.7574C38.1945 98.7942 38.1977 98.7942 38.2362 98.7942H38.4956H38.5148C38.5564 98.7942 38.5596 98.739 38.5692 98.6869C38.6333 98.3712 38.7133 98.0586 38.7902 97.7551C38.7934 97.7367 38.7998 97.7183 38.8062 97.703C38.8094 97.6969 38.8158 97.6938 38.819 97.6938C38.8254 97.6938 38.8318 97.6969 38.835 97.703C38.851 97.7398 39.0432 98.6103 39.0816 98.7605C39.088 98.7789 39.0976 98.7942 39.1232 98.7942H39.3794C39.4275 98.7942 39.4595 98.7697 39.4691 98.7237C39.5107 98.5214 39.5652 98.2946 39.6164 98.0953C39.6805 97.8501 39.7477 97.608 39.815 97.3628C39.8662 97.1666 39.9206 96.952 39.9847 96.7589C40.0071 96.6945 40.0904 96.5014 39.9495 96.5014C39.879 96.5014 39.8182 96.4953 39.7477 96.4984C39.7253 96.4984 39.7029 96.4984 39.6805 96.5014C39.6452 96.5014 39.6196 96.5198 39.6068 96.5505C39.5972 96.5811 39.5812 96.6148 39.5716 96.6455C39.5235 96.8417 39.4787 97.0654 39.4211 97.2585C39.3794 97.4026 39.3346 97.5436 39.2994 97.6877C39.2994 97.6907 39.2866 97.7367 39.2737 97.7367C39.2513 97.7367 39.2449 97.703 39.2385 97.6723C39.2353 97.6601 39.0752 96.7804 39.0528 96.6087C39.0464 96.5413 39.024 96.5014 38.9503 96.4984H38.9119C38.8286 96.5045 38.7838 96.4953 38.7005 96.5014C38.6333 96.5045 38.6237 96.5106 38.6076 96.5689C38.6044 96.5811 38.6044 96.5965 38.6012 96.6118C38.5756 96.7467 38.4091 97.6172 38.3867 97.7214C38.3867 97.7275 38.3835 97.7398 38.3739 97.7398C38.3611 97.7398 38.3579 97.7245 38.3547 97.7183C38.3515 97.7061 38.0728 96.5811 38.0632 96.5535C38.0504 96.5168 38.0216 96.4953 37.9768 96.4953C37.9063 96.4984 37.8519 96.4953 37.7622 96.4953ZM41.7263 97.89C41.7263 98.0279 41.7231 98.3007 41.7199 98.3007V98.7176C41.7199 98.736 41.7167 98.7666 41.7263 98.785C41.7359 98.8065 41.7648 98.8003 41.784 98.7973C41.8768 98.7881 41.9697 98.8003 42.0626 98.7973C42.1651 98.7942 42.133 98.644 42.1298 98.5827C42.117 98.4478 42.133 97.421 42.133 97.0532C42.133 96.8877 42.1266 96.5474 42.117 96.5321C42.101 96.5045 42.0594 96.4984 42.0274 96.4953C41.9569 96.483 41.9217 96.5014 41.816 96.5014C41.7103 96.5014 41.7039 96.5321 41.7039 96.6394V96.7313C41.7007 96.8049 41.7135 97.3198 41.7135 97.4026C41.7135 97.4425 41.7103 97.4455 41.6687 97.4455C41.563 97.4425 41.4157 97.4547 41.3068 97.4455C41.1499 97.4333 41.1851 97.4455 41.1755 97.3076V97.2892C41.1755 97.093 41.2011 96.5842 41.1915 96.5535C41.1755 96.5076 41.1563 96.4984 41.1147 96.5014C41.0186 96.5076 40.9193 96.4922 40.8232 96.4984C40.7912 96.5014 40.7816 96.5106 40.772 96.5413C40.7688 96.5566 40.7656 96.5719 40.7656 96.5873C40.7656 96.6823 40.772 96.811 40.7752 96.906L40.7656 98.7237C40.7656 98.8034 40.8393 98.7942 41.0026 98.7942C41.1531 98.7942 41.1915 98.8279 41.1915 98.6563C41.1915 98.5183 41.1819 98.3436 41.1851 98.2057C41.1883 98.0984 41.1851 97.9942 41.1851 97.8869C41.1883 97.8471 41.1979 97.8348 41.2364 97.8348C41.3773 97.8317 41.531 97.8348 41.6719 97.8348C41.7167 97.8348 41.7263 97.8409 41.7263 97.89ZM42.8755 98.1689H42.8723C42.8723 98.2455 42.8691 98.3252 42.8723 98.4049C42.8755 98.503 42.8819 98.6011 42.8883 98.6992C42.8883 98.7329 42.8979 98.7421 42.93 98.7482C42.9972 98.7636 43.0613 98.7666 43.1285 98.7666C43.3014 98.7605 43.4744 98.7727 43.6473 98.7666C43.7178 98.7636 43.7498 98.7697 43.8202 98.7574C43.8843 98.7452 43.9067 98.7114 43.9067 98.6195C43.9003 98.5612 43.9035 98.5367 43.9035 98.4662C43.9035 98.3651 43.8298 98.3314 43.7658 98.3344C43.721 98.3375 43.5064 98.3314 43.4199 98.3314C43.2758 98.3344 43.2982 98.3528 43.2982 98.2088C43.2982 98.0923 43.3014 97.9421 43.3014 97.8225C43.3014 97.7582 43.3078 97.7367 43.3719 97.7367H43.7722C43.8362 97.7459 43.8811 97.703 43.8811 97.6386C43.8811 97.5743 43.8875 97.5712 43.8875 97.5068L43.8779 97.4149C43.8715 97.3628 43.8523 97.3444 43.7978 97.3444C43.7626 97.3444 43.7274 97.3474 43.6921 97.3505C43.5544 97.3597 43.4904 97.3413 43.3559 97.3505C43.311 97.3505 43.3046 97.3444 43.3014 97.3045C43.2886 97.185 43.3014 97.0532 43.3143 96.9336C43.3175 96.8846 43.3303 96.8754 43.3783 96.8723L43.8298 96.8693C43.8907 96.8631 43.9099 96.8662 43.9067 96.808C43.9003 96.7191 43.9099 96.6271 43.9003 96.5382C43.8939 96.4892 43.8779 96.48 43.8202 96.48C43.7242 96.483 43.7017 96.483 43.6057 96.4892C43.5096 96.4922 43.1253 96.4922 43.0324 96.4922C42.8979 96.4922 42.8883 96.483 42.8851 96.6394C42.8787 96.762 42.8819 96.8877 42.8819 97.0133C42.8819 97.2279 42.8691 97.9973 42.8755 98.1689ZM45.0399 98.5674C45.0399 98.4877 45.0399 97.985 45.0431 97.9451C45.0463 97.9359 45.0527 97.9176 45.0655 97.9176C45.0783 97.9176 45.0847 97.9237 45.0879 97.9329C45.216 98.172 45.3281 98.4111 45.4434 98.644C45.4594 98.6777 45.4946 98.7758 45.5042 98.785C45.517 98.8034 45.5395 98.7973 45.5587 98.7973L45.9109 98.8003C45.9526 98.8003 45.9622 98.7758 45.9526 98.7421C45.927 98.6501 45.7444 98.3252 45.7028 98.2455C45.674 98.1842 45.4818 97.8287 45.4754 97.8011C45.469 97.7888 45.517 97.7674 45.5234 97.7582C45.6772 97.6264 45.8149 97.4915 45.8437 97.2861C45.8757 97.0838 45.8277 96.8631 45.69 96.7007C45.5843 96.5811 45.4466 96.5106 45.2833 96.5014C45.184 96.4953 45.0879 96.5045 44.9886 96.5014C44.9022 96.4984 44.8413 96.4984 44.7324 96.4984C44.6812 96.4984 44.6492 96.526 44.646 96.5781V96.6148C44.6396 96.8509 44.646 97.0869 44.6492 97.3198C44.6492 97.6754 44.6428 98.6134 44.6428 98.7482C44.6428 98.7881 44.6492 98.7973 44.6876 98.7973C44.71 98.7973 44.7356 98.8003 44.7581 98.8003C44.8477 98.8003 44.9022 98.7973 44.995 98.7973C45.0655 98.7973 45.0399 98.6869 45.0399 98.5674ZM45.0399 97.372L45.0431 97.0624C45.0463 97.0164 45.0303 96.9244 45.0751 96.8907C45.136 96.8478 45.2608 96.8907 45.3153 96.9275C45.4754 97.0317 45.4626 97.2892 45.3761 97.4333C45.3345 97.5007 45.264 97.5405 45.184 97.562C45.136 97.5743 45.0463 97.5896 45.0431 97.516C45.0431 97.467 45.0399 97.372 45.0399 97.372ZM46.6951 98.1689H46.6919C46.6919 98.2455 46.6886 98.3252 46.6919 98.4049C46.6951 98.503 46.7015 98.6011 46.7079 98.6992C46.7079 98.7329 46.7175 98.7421 46.7495 98.7482C46.8167 98.7636 46.8808 98.7666 46.948 98.7666C47.121 98.7605 47.2939 98.7727 47.4668 98.7666C47.5373 98.7636 47.5693 98.7697 47.6398 98.7574C47.7038 98.7452 47.7262 98.7114 47.7262 98.6195C47.7198 98.5612 47.723 98.5367 47.723 98.4662C47.723 98.3651 47.6494 98.3314 47.5853 98.3344C47.5405 98.3375 47.3259 98.3314 47.2395 98.3314C47.0954 98.3344 47.1178 98.3528 47.1178 98.2088C47.1178 98.0923 47.121 97.9421 47.121 97.8225C47.121 97.7582 47.1274 97.7367 47.1914 97.7367H47.5917C47.6558 97.7459 47.7006 97.703 47.7006 97.6386C47.7006 97.5743 47.707 97.5712 47.707 97.5068L47.6974 97.4149C47.691 97.3628 47.6718 97.3444 47.6174 97.3444C47.5821 97.3444 47.5469 97.3474 47.5117 97.3505C47.374 97.3597 47.3099 97.3413 47.1754 97.3505C47.1306 97.3505 47.1242 97.3444 47.121 97.3045C47.1082 97.185 47.121 97.0532 47.1338 96.9336C47.137 96.8846 47.1498 96.8754 47.1978 96.8723L47.6494 96.8693C47.7102 96.8631 47.7294 96.8662 47.7262 96.808C47.7198 96.7191 47.7294 96.6271 47.7198 96.5382C47.7134 96.4892 47.6974 96.48 47.6398 96.48C47.5437 96.483 47.5213 96.483 47.4252 96.4892C47.3291 96.4922 46.9448 96.4922 46.852 96.4922C46.7175 96.4922 46.7079 96.483 46.7047 96.6394C46.6983 96.762 46.7015 96.8877 46.7015 97.0133C46.7015 97.2279 46.6886 97.9973 46.6951 98.1689ZM50.2584 97.8593L50.2616 98.7544C50.2616 98.7881 50.2936 98.8003 50.3192 98.8003H50.6139C50.6683 98.8003 50.6683 98.7544 50.6683 98.7329C50.6683 98.4448 50.6683 98.1352 50.6811 97.844C50.6811 97.7949 50.6875 97.749 50.7131 97.703C50.742 97.657 51.1679 96.7467 51.2159 96.5965C51.2223 96.575 51.2351 96.5382 51.2127 96.5198C51.1743 96.4861 51.0206 96.5014 50.9277 96.5014C50.8701 96.5014 50.8348 96.5229 50.8092 96.5781C50.7003 96.8202 50.5882 97.0593 50.4762 97.3015C50.4666 97.3229 50.4537 97.3229 50.4377 97.3015C50.4025 97.2463 50.1751 96.7068 50.1399 96.5873C50.1335 96.5719 50.1303 96.5566 50.1207 96.5443C50.0759 96.4953 50.0022 96.5014 49.9414 96.5014C49.8613 96.5014 49.8036 96.5045 49.7268 96.5045C49.6756 96.5045 49.6723 96.5505 49.682 96.5903C49.6852 96.6057 49.6948 96.621 49.7012 96.6332C49.8229 96.8539 50.1655 97.5835 50.2264 97.7214C50.2584 97.7858 50.2552 97.7888 50.2584 97.8593ZM53.6493 97.0624C53.7165 97.2524 53.7325 97.4578 53.7325 97.6601C53.7325 97.8287 53.7005 97.9911 53.6557 98.1536C53.598 98.3467 53.502 98.5214 53.329 98.6348C53.2009 98.7237 53.0664 98.7819 52.9095 98.7973C52.8871 98.7973 52.8679 98.8003 52.8455 98.8003C52.8263 98.8003 52.807 98.7973 52.7846 98.7973C52.6277 98.7819 52.4932 98.7237 52.3619 98.6348C52.1922 98.5214 52.0929 98.3467 52.0385 98.1536C51.9904 97.9911 51.9616 97.8287 51.9616 97.6601C51.9616 97.4578 51.9776 97.2524 52.0449 97.0624C52.1634 96.7344 52.49 96.5014 52.8455 96.4953C53.2009 96.5014 53.5276 96.7344 53.6493 97.0624ZM53.3386 97.8838C53.3707 97.6969 53.3579 97.5068 53.3194 97.3198C53.281 97.1513 53.2041 96.9857 53.0568 96.8846C53.0312 96.8662 53.0024 96.8509 52.9736 96.8417C52.9319 96.8233 52.8871 96.8172 52.8455 96.8172C52.8038 96.8172 52.7622 96.8233 52.7206 96.8417C52.6886 96.8509 52.6629 96.8662 52.6373 96.8846C52.4868 96.9857 52.4099 97.1513 52.3747 97.3198C52.3363 97.5068 52.3235 97.6969 52.3555 97.8838C52.3875 98.0524 52.4516 98.2793 52.6181 98.3651C52.6886 98.4019 52.7654 98.4264 52.8455 98.4294C52.9255 98.4264 53.0056 98.4019 53.076 98.3651C53.2426 98.2793 53.3066 98.0524 53.3386 97.8838ZM54.4686 97.0011C54.4686 97.3106 54.4718 97.6233 54.4782 97.9298C54.4814 98.1168 54.4782 98.3283 54.5711 98.4999C54.6896 98.7206 54.9522 98.8187 55.2052 98.8034C55.3781 98.7911 55.5382 98.7482 55.6631 98.6256C55.8745 98.408 55.8329 98.0678 55.8361 97.7888C55.8425 97.3873 55.8521 97.0133 55.8521 96.6087C55.8521 96.5413 55.8297 96.5045 55.7592 96.5014C55.6727 96.4984 55.5863 96.5014 55.4998 96.5076C55.4646 96.5076 55.4358 96.5382 55.4358 96.575C55.439 96.8693 55.4454 97.1666 55.4422 97.4639C55.439 97.7183 55.4742 98.0003 55.3749 98.2425C55.3365 98.3314 55.25 98.3988 55.1475 98.3988C54.8913 98.3927 54.901 98.1015 54.8913 97.9298C54.8721 97.5559 54.901 97.1727 54.9106 96.7988C54.9106 96.7283 54.9106 96.6578 54.9138 96.5873C54.917 96.5505 54.9234 96.5045 54.8721 96.5014H54.8145C54.7344 96.5076 54.6544 96.4984 54.5743 96.5014C54.4974 96.5076 54.4718 96.529 54.4718 96.6026C54.4718 96.7344 54.4686 96.8693 54.4686 97.0011ZM56.9853 98.5674C56.9853 98.4877 56.9853 97.985 56.9885 97.9451C56.9917 97.9359 56.9981 97.9176 57.0109 97.9176C57.0237 97.9176 57.0301 97.9237 57.0333 97.9329C57.1614 98.172 57.2735 98.4111 57.3888 98.644C57.4048 98.6777 57.44 98.7758 57.4496 98.785C57.4624 98.8034 57.4848 98.7973 57.504 98.7973L57.8563 98.8003C57.8979 98.8003 57.9075 98.7758 57.8979 98.7421C57.8723 98.6501 57.6898 98.3252 57.6482 98.2455C57.6193 98.1842 57.4272 97.8287 57.4208 97.8011C57.4144 97.7888 57.4624 97.7674 57.4688 97.7582C57.6225 97.6264 57.7602 97.4915 57.7891 97.2861C57.8211 97.0838 57.773 96.8631 57.6353 96.7007C57.5297 96.5811 57.392 96.5106 57.2286 96.5014C57.1294 96.4953 57.0333 96.5045 56.934 96.5014C56.8475 96.4984 56.7867 96.4984 56.6778 96.4984C56.6266 96.4984 56.5946 96.526 56.5914 96.5781V96.6148C56.5849 96.8509 56.5914 97.0869 56.5946 97.3198C56.5946 97.6754 56.5882 98.6134 56.5882 98.7482C56.5882 98.7881 56.5946 98.7973 56.633 98.7973C56.6554 98.7973 56.681 98.8003 56.7034 98.8003C56.7931 98.8003 56.8475 98.7973 56.9404 98.7973C57.0109 98.7973 56.9853 98.6869 56.9853 98.5674ZM56.9853 97.372L56.9885 97.0624C56.9917 97.0164 56.9756 96.9244 57.0205 96.8907C57.0813 96.8478 57.2062 96.8907 57.2607 96.9275C57.4208 97.0317 57.408 97.2892 57.3215 97.4333C57.2799 97.5007 57.2094 97.5405 57.1294 97.562C57.0813 97.5743 56.9917 97.5896 56.9885 97.516C56.9885 97.467 56.9853 97.372 56.9853 97.372ZM59.8569 96.8999C59.8601 97.0808 59.8601 98.6164 59.8601 98.7421C59.8601 98.7881 59.8665 98.7973 59.9145 98.7973C60.0234 98.7973 60.0234 98.8003 60.1323 98.7973C60.1547 98.7973 60.1931 98.7973 60.2123 98.7881C60.2348 98.7789 60.2219 98.0555 60.2219 98.0156C60.2219 97.9727 60.3116 97.9819 60.3372 97.9819C60.872 97.9819 61.0193 97.6141 61.0193 97.3015C61.0193 97.0195 60.9617 96.4984 60.2956 96.4984C60.1803 96.4984 60.0618 96.5014 59.9497 96.5014C59.9241 96.5014 59.8921 96.4984 59.8697 96.5137C59.8441 96.5321 59.8537 96.8049 59.8569 96.8999ZM60.2251 97.5313C60.2251 97.4639 60.2219 97.0624 60.2251 96.9398C60.2251 96.9214 60.2219 96.8999 60.2251 96.8785C60.2348 96.8447 60.2764 96.8447 60.3084 96.8478C60.4942 96.8601 60.5998 97.0164 60.6158 97.1819C60.6287 97.3015 60.6126 97.4792 60.523 97.5743C60.4589 97.6386 60.3757 97.6785 60.2668 97.6785C60.2444 97.6785 60.2219 97.654 60.2219 97.6325C60.2219 97.5988 60.2219 97.5651 60.2251 97.5313ZM62.1974 98.0064C62.1878 97.657 62.191 97.2861 62.1942 96.9398C62.1942 96.8325 62.1878 96.716 62.1878 96.6087C62.1878 96.4922 62.1397 96.4984 62.0757 96.4953C61.9828 96.4922 61.9412 96.4922 61.8483 96.4922C61.7875 96.4892 61.7618 96.5045 61.7618 96.5627C61.7618 96.8631 61.7522 97.7122 61.7554 97.8348C61.7586 97.9574 61.7714 98.5153 61.765 98.6379C61.7618 98.6808 61.765 98.7237 61.7682 98.7666C61.7714 98.7819 61.781 98.7973 61.8067 98.7973C61.9123 98.7911 62.0116 98.7911 62.1173 98.7881C62.1557 98.785 62.1878 98.7758 62.2038 98.736C62.207 98.7145 62.1974 98.1536 62.1974 98.0064ZM63.5515 96.4984H63.0647C63.0231 96.4984 62.9975 96.5198 62.9975 96.5597C62.9975 96.6792 63.0039 96.7037 63.0039 96.8049C63.0039 96.8478 63.0391 96.8478 63.2217 96.8478C63.3113 96.8478 63.5483 96.8478 63.5707 96.8509C63.5771 96.8539 63.5899 96.8662 63.5899 96.8754C63.5899 96.8968 63.5835 96.9183 63.5771 96.9367C63.5707 96.949 63.5675 96.9612 63.5643 96.9735C63.5547 97.0011 62.9494 98.69 62.943 98.7206C62.9238 98.785 62.9911 98.7911 63.0391 98.7911C63.1256 98.7942 64.0159 98.7973 64.1023 98.7973C64.144 98.7973 64.16 98.7666 64.16 98.7268C64.16 98.6624 64.1696 98.595 64.1696 98.5275C64.1696 98.3957 64.0895 98.4356 63.9358 98.4356C63.8045 98.4356 63.6892 98.4325 63.5419 98.4325C63.5099 98.4325 63.4811 98.4019 63.4907 98.3712C63.5227 98.2333 63.8846 97.2371 63.9518 97.0746C63.9774 97.0164 64.1984 96.5076 64.0767 96.5014C64.0511 96.4984 64.0255 96.5014 63.9998 96.5014C63.8493 96.5014 63.702 96.5014 63.5515 96.4984ZM65.5173 96.4984H65.0305C64.9889 96.4984 64.9633 96.5198 64.9633 96.5597C64.9633 96.6792 64.9697 96.7037 64.9697 96.8049C64.9697 96.8478 65.0049 96.8478 65.1875 96.8478C65.2771 96.8478 65.5141 96.8478 65.5365 96.8509C65.5429 96.8539 65.5557 96.8662 65.5557 96.8754C65.5557 96.8968 65.5493 96.9183 65.5429 96.9367C65.5365 96.949 65.5333 96.9612 65.5301 96.9735C65.5205 97.0011 64.9153 98.69 64.9089 98.7206C64.8896 98.785 64.9569 98.7911 65.0049 98.7911C65.0914 98.7942 65.9817 98.7973 66.0681 98.7973C66.1098 98.7973 66.1258 98.7666 66.1258 98.7268C66.1258 98.6624 66.1354 98.595 66.1354 98.5275C66.1354 98.3957 66.0553 98.4356 65.9016 98.4356C65.7703 98.4356 65.655 98.4325 65.5077 98.4325C65.4757 98.4325 65.4469 98.4019 65.4565 98.3712C65.4885 98.2333 65.8504 97.2371 65.9176 97.0746C65.9432 97.0164 66.1642 96.5076 66.0425 96.5014C66.0169 96.4984 65.9913 96.5014 65.9657 96.5014C65.8151 96.5014 65.6678 96.5014 65.5173 96.4984ZM67.1661 98.7727C67.1757 98.7758 67.2045 98.7758 67.2333 98.7758C67.2974 98.7758 67.3166 98.5551 67.323 98.5091C67.3262 98.4724 67.3358 98.4693 67.3678 98.4632C67.528 98.4448 67.608 98.457 67.7681 98.4601C67.8034 98.4601 67.8226 98.4754 67.8322 98.503L67.8546 98.5735C67.8738 98.6256 67.8898 98.69 67.909 98.7421C67.9219 98.7789 67.9251 98.7758 67.9635 98.7758C68.0147 98.7758 68.2005 98.7758 68.2549 98.7727C68.3286 98.7727 68.2773 98.6287 68.2677 98.6042C68.2389 98.5183 68.2325 98.4294 68.2037 98.3436C68.1909 98.3068 67.8258 96.6486 67.8098 96.5566C67.7874 96.5014 67.8066 96.4984 67.7553 96.4984C67.6464 96.4984 67.5312 96.5045 67.4191 96.4984C67.3742 96.4984 67.3774 96.5106 67.371 96.5566C67.3646 96.5995 67.2493 97.0869 67.2045 97.2892C67.1469 97.5436 67.0956 97.7888 67.0316 98.0402C67.0092 98.1291 66.8554 98.7697 66.8747 98.7727C66.8843 98.7789 66.9003 98.7758 66.9131 98.7758C66.9932 98.7758 67.0668 98.7758 67.1661 98.7727ZM67.5856 98.0769H67.5184C67.4287 98.0769 67.4255 98.0769 67.4479 97.9881C67.4639 97.9206 67.5504 97.5559 67.5696 97.467C67.5728 97.4608 67.5792 97.4547 67.5824 97.4547C67.5888 97.4547 67.5952 97.4608 67.5984 97.4639C67.6112 97.5007 67.624 97.5926 67.6368 97.6294C67.6657 97.7459 67.6849 97.844 67.7137 97.9697C67.7425 98.08 67.7297 98.08 67.6721 98.08C67.6432 98.08 67.6144 98.0769 67.5856 98.0769ZM70.6526 98.4632C70.6558 98.5582 70.6558 98.6532 70.659 98.7482C70.659 98.7911 70.6622 98.7973 70.707 98.7973H70.9952C71.0561 98.7973 71.0433 98.6992 71.0401 98.6471L71.0497 96.9306C71.0497 96.8846 71.0657 96.8693 71.1297 96.8693H71.4115C71.4788 96.8693 71.4628 96.7589 71.4628 96.6823C71.4628 96.6148 71.4884 96.4984 71.4115 96.4984C71.3571 96.4984 70.8351 96.4984 70.6205 96.5014C70.5149 96.5014 70.4284 96.4984 70.3227 96.4984C70.2427 96.4984 70.2459 96.5597 70.2459 96.6945C70.2459 96.7804 70.2427 96.8662 70.3195 96.8662C70.3643 96.8662 70.5469 96.8662 70.5981 96.8693C70.6301 96.8693 70.6526 96.8785 70.659 96.9122C70.659 96.9214 70.6622 96.9306 70.6622 96.9398C70.6622 97.1605 70.6462 98.1873 70.6526 98.4632ZM72.4967 98.7727C72.5063 98.7758 72.5351 98.7758 72.5639 98.7758C72.628 98.7758 72.6472 98.5551 72.6536 98.5091C72.6568 98.4724 72.6664 98.4693 72.6984 98.4632C72.8586 98.4448 72.9386 98.457 73.0987 98.4601C73.134 98.4601 73.1532 98.4754 73.1628 98.503L73.1852 98.5735C73.2044 98.6256 73.2204 98.69 73.2396 98.7421C73.2525 98.7789 73.2557 98.7758 73.2941 98.7758C73.3453 98.7758 73.5311 98.7758 73.5855 98.7727C73.6592 98.7727 73.6079 98.6287 73.5983 98.6042C73.5695 98.5183 73.5631 98.4294 73.5343 98.3436C73.5215 98.3068 73.1564 96.6486 73.1404 96.5566C73.118 96.5014 73.1372 96.4984 73.0859 96.4984C72.977 96.4984 72.8618 96.5045 72.7497 96.4984C72.7048 96.4984 72.708 96.5106 72.7016 96.5566C72.6952 96.5995 72.5799 97.0869 72.5351 97.2892C72.4775 97.5436 72.4262 97.7888 72.3622 98.0402C72.3398 98.1291 72.1861 98.7697 72.2053 98.7727C72.2149 98.7789 72.2309 98.7758 72.2437 98.7758C72.3238 98.7758 72.3974 98.7758 72.4967 98.7727ZM72.9162 98.0769H72.849C72.7593 98.0769 72.7561 98.0769 72.7785 97.9881C72.7945 97.9206 72.881 97.5559 72.9002 97.467C72.9034 97.4608 72.9098 97.4547 72.913 97.4547C72.9194 97.4547 72.9258 97.4608 72.929 97.4639C72.9418 97.5007 72.9546 97.5926 72.9674 97.6294C72.9963 97.7459 73.0155 97.844 73.0443 97.9697C73.0731 98.08 73.0603 98.08 73.0027 98.08C72.9738 98.08 72.945 98.0769 72.9162 98.0769ZM75.0133 96.483C74.9525 96.4861 74.8916 96.4953 74.8308 96.5137C74.6995 96.5566 74.581 96.6424 74.5009 96.7528C74.4305 96.8539 74.4016 96.9735 74.392 97.093C74.3856 97.185 74.3952 97.28 74.4401 97.3628C74.4881 97.4516 74.5714 97.5283 74.6418 97.6018C74.7059 97.6662 74.7699 97.7306 74.8404 97.7888C74.9044 97.8471 74.9781 97.893 75.0421 97.9543C75.135 98.0432 75.1702 98.2455 75.103 98.3559C75.0229 98.4785 74.834 98.4969 74.7091 98.457C74.645 98.4356 74.5874 98.3896 74.5329 98.3528C74.5009 98.3314 74.4625 98.3222 74.4401 98.3589C74.4273 98.3773 74.4209 98.3988 74.4145 98.4172C74.392 98.4938 74.3632 98.5643 74.36 98.6471C74.3568 98.7421 74.5458 98.7697 74.6162 98.785C74.93 98.8555 75.3079 98.8003 75.4713 98.503C75.5033 98.4417 75.5257 98.3773 75.5385 98.3099C75.5417 98.2854 75.5449 98.2639 75.5449 98.2394C75.5577 98.0432 75.4745 97.8777 75.3496 97.7306C75.2151 97.5712 75.0453 97.4608 74.8884 97.3229C74.7923 97.2371 74.7571 97.1022 74.7859 96.9796C74.8148 96.8478 74.9717 96.8141 75.0902 96.8478C75.1254 96.857 75.1542 96.8723 75.1862 96.8907C75.2055 96.8999 75.2247 96.9122 75.2503 96.9122C75.2951 96.9152 75.3015 96.8815 75.3111 96.8478C75.3336 96.7712 75.372 96.7099 75.388 96.6363C75.404 96.5535 75.3336 96.5382 75.2631 96.5168C75.1798 96.4953 75.0998 96.48 75.0133 96.483ZM76.6877 98.4632C76.6909 98.5582 76.6909 98.6532 76.6941 98.7482C76.6941 98.7911 76.6973 98.7973 76.7421 98.7973H77.0304C77.0912 98.7973 77.0784 98.6992 77.0752 98.6471L77.0848 96.9306C77.0848 96.8846 77.1008 96.8693 77.1649 96.8693H77.4467C77.5139 96.8693 77.4979 96.7589 77.4979 96.6823C77.4979 96.6148 77.5235 96.4984 77.4467 96.4984C77.3922 96.4984 76.8702 96.4984 76.6557 96.5014C76.55 96.5014 76.4635 96.4984 76.3578 96.4984C76.2778 96.4984 76.281 96.5597 76.281 96.6945C76.281 96.7804 76.2778 96.8662 76.3546 96.8662C76.3995 96.8662 76.582 96.8662 76.6333 96.8693C76.6653 96.8693 76.6877 96.8785 76.6941 96.9122C76.6941 96.9214 76.6973 96.9306 76.6973 96.9398C76.6973 97.1605 76.6813 98.1873 76.6877 98.4632ZM78.2404 98.1689H78.2372C78.2372 98.2455 78.234 98.3252 78.2372 98.4049C78.2404 98.503 78.2468 98.6011 78.2532 98.6992C78.2532 98.7329 78.2628 98.7421 78.2948 98.7482C78.3621 98.7636 78.4261 98.7666 78.4934 98.7666C78.6663 98.7605 78.8393 98.7727 79.0122 98.7666C79.0826 98.7636 79.1147 98.7697 79.1851 98.7574C79.2492 98.7452 79.2716 98.7114 79.2716 98.6195C79.2652 98.5612 79.2684 98.5367 79.2684 98.4662C79.2684 98.3651 79.1947 98.3314 79.1307 98.3344C79.0858 98.3375 78.8713 98.3314 78.7848 98.3314C78.6407 98.3344 78.6631 98.3528 78.6631 98.2088C78.6631 98.0923 78.6663 97.9421 78.6663 97.8225C78.6663 97.7582 78.6727 97.7367 78.7368 97.7367H79.1371C79.2011 97.7459 79.246 97.703 79.246 97.6386C79.246 97.5743 79.2524 97.5712 79.2524 97.5068L79.2428 97.4149C79.2364 97.3628 79.2171 97.3444 79.1627 97.3444C79.1275 97.3444 79.0922 97.3474 79.057 97.3505C78.9193 97.3597 78.8553 97.3413 78.7208 97.3505C78.6759 97.3505 78.6695 97.3444 78.6663 97.3045C78.6535 97.185 78.6663 97.0532 78.6791 96.9336C78.6823 96.8846 78.6951 96.8754 78.7432 96.8723L79.1947 96.8693C79.2556 96.8631 79.2748 96.8662 79.2716 96.808C79.2652 96.7191 79.2748 96.6271 79.2652 96.5382C79.2588 96.4892 79.2428 96.48 79.1851 96.48C79.089 96.483 79.0666 96.483 78.9706 96.4892C78.8745 96.4922 78.4902 96.4922 78.3973 96.4922C78.2628 96.4922 78.2532 96.483 78.25 96.6394C78.2436 96.762 78.2468 96.8877 78.2468 97.0133C78.2468 97.2279 78.234 97.9973 78.2404 98.1689ZM80.661 96.483C80.6001 96.4861 80.5393 96.4953 80.4784 96.5137C80.3471 96.5566 80.2286 96.6424 80.1486 96.7528C80.0781 96.8539 80.0493 96.9735 80.0397 97.093C80.0333 97.185 80.0429 97.28 80.0877 97.3628C80.1358 97.4516 80.219 97.5283 80.2895 97.6018C80.3535 97.6662 80.4176 97.7306 80.488 97.7888C80.5521 97.8471 80.6257 97.893 80.6898 97.9543C80.7826 98.0432 80.8179 98.2455 80.7506 98.3559C80.6706 98.4785 80.4816 98.4969 80.3567 98.457C80.2927 98.4356 80.235 98.3896 80.1806 98.3528C80.1486 98.3314 80.1101 98.3222 80.0877 98.3589C80.0749 98.3773 80.0685 98.3988 80.0621 98.4172C80.0397 98.4938 80.0109 98.5643 80.0077 98.6471C80.0045 98.7421 80.1934 98.7697 80.2639 98.785C80.5777 98.8555 80.9556 98.8003 81.1189 98.503C81.1509 98.4417 81.1733 98.3773 81.1861 98.3099C81.1894 98.2854 81.1926 98.2639 81.1926 98.2394C81.2054 98.0432 81.1221 97.8777 80.9972 97.7306C80.8627 97.5712 80.693 97.4608 80.5361 97.3229C80.44 97.2371 80.4048 97.1022 80.4336 96.9796C80.4624 96.8478 80.6193 96.8141 80.7378 96.8478C80.773 96.857 80.8019 96.8723 80.8339 96.8907C80.8531 96.8999 80.8723 96.9122 80.8979 96.9122C80.9428 96.9152 80.9492 96.8815 80.9588 96.8478C80.9812 96.7712 81.0196 96.7099 81.0356 96.6363C81.0516 96.5535 80.9812 96.5382 80.9107 96.5168C80.8275 96.4953 80.7474 96.48 80.661 96.483ZM83.1451 96.7988C83.1419 96.9888 83.1611 98.3773 83.1579 98.4785C83.1579 98.5735 83.1579 98.6685 83.1611 98.7636C83.1611 98.7789 83.1707 98.7942 83.1867 98.7942C83.4109 98.8034 83.6318 98.785 83.856 98.7881C83.9297 98.7911 84.0033 98.7881 84.0738 98.7881C84.1442 98.785 84.1506 98.7574 84.1474 98.7022C84.1442 98.6164 84.1442 98.5398 84.1442 98.457C84.141 98.4141 84.1154 98.3988 84.077 98.3988C83.9457 98.4019 83.8144 98.3957 83.6831 98.4019C83.6607 98.4049 83.6382 98.4049 83.6158 98.4049C83.5774 98.4019 83.5678 98.3927 83.5646 98.3528V98.3068C83.555 98.0524 83.5742 97.7888 83.5742 97.5344C83.571 97.3198 83.5742 97.1267 83.571 96.9367C83.571 96.8539 83.571 96.7712 83.5678 96.6915C83.5646 96.6424 83.5678 96.5903 83.555 96.5413C83.5486 96.5229 83.539 96.4984 83.5166 96.4984H83.2155C83.1643 96.4984 83.1483 96.5321 83.1451 96.5811V96.7988ZM85.3254 98.0064C85.3158 97.657 85.319 97.2861 85.3222 96.9398C85.3222 96.8325 85.3158 96.716 85.3158 96.6087C85.3158 96.4922 85.2678 96.4984 85.2038 96.4953C85.1109 96.4922 85.0693 96.4922 84.9764 96.4922C84.9155 96.4892 84.8899 96.5045 84.8899 96.5627C84.8899 96.8631 84.8803 97.7122 84.8835 97.8348C84.8867 97.9574 84.8995 98.5153 84.8931 98.6379C84.8899 98.6808 84.8931 98.7237 84.8963 98.7666C84.8995 98.7819 84.9091 98.7973 84.9347 98.7973C85.0404 98.7911 85.1397 98.7911 85.2454 98.7881C85.2838 98.785 85.3158 98.7758 85.3319 98.736C85.3351 98.7145 85.3254 98.1536 85.3254 98.0064ZM86.5035 98.2425C86.5035 98.1352 86.4874 97.844 86.4907 97.7827C86.4907 97.7735 86.4971 97.7612 86.5003 97.7612C86.5067 97.7612 86.5195 97.7674 86.5227 97.7704C86.6252 97.8992 87.1055 98.7911 87.1632 98.7942C87.1792 98.7973 87.1952 98.7973 87.2112 98.7973C87.3201 98.7911 87.4161 98.7973 87.525 98.7973C87.6371 98.7973 87.5635 98.6931 87.5442 98.6655C87.5154 98.6256 87.1343 97.9727 87.1119 97.9329C87.0479 97.8287 86.9934 97.7153 86.9294 97.6141C86.923 97.6018 86.9166 97.5835 86.9198 97.5712C86.9262 97.5344 86.9358 97.5007 86.9518 97.467C87.0287 97.3229 87.1087 97.1758 87.2016 97.0378C87.3041 96.8815 87.3617 96.7834 87.445 96.6424C87.4642 96.6087 87.477 96.5719 87.4898 96.5321C87.493 96.5168 87.4802 96.5014 87.461 96.5014C87.4001 96.4984 87.1792 96.5014 87.1087 96.5014C87.0767 96.5014 87.0447 96.5076 87.0287 96.5352C86.987 96.6118 86.5579 97.3628 86.5163 97.4302C86.5131 97.4363 86.5035 97.4394 86.4939 97.4394C86.4939 97.4394 86.4874 97.4302 86.4874 97.4241C86.4842 97.2524 86.5163 96.6915 86.5099 96.5781C86.5067 96.5106 86.4939 96.5045 86.4234 96.5014C86.3465 96.4984 86.2409 96.4984 86.164 96.4984C86.0935 96.4984 86.0871 96.5352 86.0775 96.5842C86.0743 96.5934 86.0743 96.8815 86.0743 97.0103C86.0743 97.1972 86.0583 98.3681 86.0807 98.739C86.0807 98.7758 86.0903 98.7973 86.1224 98.7973C86.2088 98.7911 86.3369 98.7973 86.4234 98.7973C86.4842 98.7973 86.4939 98.7911 86.4939 98.6931C86.4939 98.5612 86.5067 98.4417 86.5067 98.2793C86.5067 98.267 86.5035 98.2547 86.5035 98.2425ZM88.3252 98.1689H88.322C88.322 98.2455 88.3188 98.3252 88.322 98.4049C88.3252 98.503 88.3316 98.6011 88.338 98.6992C88.338 98.7329 88.3476 98.7421 88.3796 98.7482C88.4468 98.7636 88.5109 98.7666 88.5781 98.7666C88.7511 98.7605 88.924 98.7727 89.0969 98.7666C89.1674 98.7636 89.1994 98.7697 89.2699 98.7574C89.3339 98.7452 89.3563 98.7114 89.3563 98.6195C89.3499 98.5612 89.3531 98.5367 89.3531 98.4662C89.3531 98.3651 89.2795 98.3314 89.2154 98.3344C89.1706 98.3375 88.956 98.3314 88.8696 98.3314C88.7255 98.3344 88.7479 98.3528 88.7479 98.2088C88.7479 98.0923 88.7511 97.9421 88.7511 97.8225C88.7511 97.7582 88.7575 97.7367 88.8215 97.7367H89.2218C89.2859 97.7459 89.3307 97.703 89.3307 97.6386C89.3307 97.5743 89.3371 97.5712 89.3371 97.5068L89.3275 97.4149C89.3211 97.3628 89.3019 97.3444 89.2475 97.3444C89.2122 97.3444 89.177 97.3474 89.1418 97.3505C89.0041 97.3597 88.94 97.3413 88.8055 97.3505C88.7607 97.3505 88.7543 97.3444 88.7511 97.3045C88.7383 97.185 88.7511 97.0532 88.7639 96.9336C88.7671 96.8846 88.7799 96.8754 88.8279 96.8723L89.2795 96.8693C89.3403 96.8631 89.3595 96.8662 89.3563 96.808C89.3499 96.7191 89.3595 96.6271 89.3499 96.5382C89.3435 96.4892 89.3275 96.48 89.2699 96.48C89.1738 96.483 89.1514 96.483 89.0553 96.4892C88.9592 96.4922 88.575 96.4922 88.4821 96.4922C88.3476 96.4922 88.338 96.483 88.3348 96.6394C88.3284 96.762 88.3316 96.8877 88.3316 97.0133C88.3316 97.2279 88.3188 97.9973 88.3252 98.1689ZM92.2696 97.89C92.2696 98.0279 92.2664 98.3007 92.2632 98.3007V98.7176C92.2632 98.736 92.26 98.7666 92.2696 98.785C92.2792 98.8065 92.308 98.8003 92.3272 98.7973C92.4201 98.7881 92.513 98.8003 92.6058 98.7973C92.7083 98.7942 92.6763 98.644 92.6731 98.5827C92.6603 98.4478 92.6763 97.421 92.6763 97.0532C92.6763 96.8877 92.6699 96.5474 92.6603 96.5321C92.6443 96.5045 92.6026 96.4984 92.5706 96.4953C92.5002 96.483 92.4649 96.5014 92.3593 96.5014C92.2536 96.5014 92.2472 96.5321 92.2472 96.6394V96.7313C92.244 96.8049 92.2568 97.3198 92.2568 97.4026C92.2568 97.4425 92.2536 97.4455 92.2119 97.4455C92.1063 97.4425 91.959 97.4547 91.8501 97.4455C91.6932 97.4333 91.7284 97.4455 91.7188 97.3076V97.2892C91.7188 97.093 91.7444 96.5842 91.7348 96.5535C91.7188 96.5076 91.6996 96.4984 91.6579 96.5014C91.5619 96.5076 91.4626 96.4922 91.3665 96.4984C91.3345 96.5014 91.3249 96.5106 91.3153 96.5413C91.3121 96.5566 91.3089 96.5719 91.3089 96.5873C91.3089 96.6823 91.3153 96.811 91.3185 96.906L91.3089 98.7237C91.3089 98.8034 91.3825 98.7942 91.5458 98.7942C91.6964 98.7942 91.7348 98.8279 91.7348 98.6563C91.7348 98.5183 91.7252 98.3436 91.7284 98.2057C91.7316 98.0984 91.7284 97.9942 91.7284 97.8869C91.7316 97.8471 91.7412 97.8348 91.7796 97.8348C91.9205 97.8317 92.0742 97.8348 92.2151 97.8348C92.26 97.8348 92.2696 97.8409 92.2696 97.89ZM93.4188 98.1689H93.4156C93.4156 98.2455 93.4124 98.3252 93.4156 98.4049C93.4188 98.503 93.4252 98.6011 93.4316 98.6992C93.4316 98.7329 93.4412 98.7421 93.4732 98.7482C93.5405 98.7636 93.6045 98.7666 93.6718 98.7666C93.8447 98.7605 94.0176 98.7727 94.1906 98.7666C94.261 98.7636 94.293 98.7697 94.3635 98.7574C94.4275 98.7452 94.45 98.7114 94.45 98.6195C94.4436 98.5612 94.4468 98.5367 94.4468 98.4662C94.4468 98.3651 94.3731 98.3314 94.3091 98.3344C94.2642 98.3375 94.0497 98.3314 93.9632 98.3314C93.8191 98.3344 93.8415 98.3528 93.8415 98.2088C93.8415 98.0923 93.8447 97.9421 93.8447 97.8225C93.8447 97.7582 93.8511 97.7367 93.9152 97.7367H94.3155C94.3795 97.7459 94.4243 97.703 94.4243 97.6386C94.4243 97.5743 94.4307 97.5712 94.4307 97.5068L94.4211 97.4149C94.4147 97.3628 94.3955 97.3444 94.3411 97.3444C94.3059 97.3444 94.2706 97.3474 94.2354 97.3505C94.0977 97.3597 94.0336 97.3413 93.8991 97.3505C93.8543 97.3505 93.8479 97.3444 93.8447 97.3045C93.8319 97.185 93.8447 97.0532 93.8575 96.9336C93.8607 96.8846 93.8735 96.8754 93.9216 96.8723L94.3731 96.8693C94.4339 96.8631 94.4532 96.8662 94.45 96.808C94.4436 96.7191 94.4532 96.6271 94.4436 96.5382C94.4371 96.4892 94.4211 96.48 94.3635 96.48C94.2674 96.483 94.245 96.483 94.1489 96.4892C94.0529 96.4922 93.6686 96.4922 93.5757 96.4922C93.4412 96.4922 93.4316 96.483 93.4284 96.6394C93.422 96.762 93.4252 96.8877 93.4252 97.0133C93.4252 97.2279 93.4124 97.9973 93.4188 98.1689ZM95.4807 98.7727C95.4903 98.7758 95.5191 98.7758 95.5479 98.7758C95.612 98.7758 95.6312 98.5551 95.6376 98.5091C95.6408 98.4724 95.6504 98.4693 95.6824 98.4632C95.8425 98.4448 95.9226 98.457 96.0827 98.4601C96.1179 98.4601 96.1372 98.4754 96.1468 98.503L96.1692 98.5735C96.1884 98.6256 96.2044 98.69 96.2236 98.7421C96.2364 98.7789 96.2396 98.7758 96.2781 98.7758C96.3293 98.7758 96.515 98.7758 96.5695 98.7727C96.6431 98.7727 96.5919 98.6287 96.5823 98.6042C96.5535 98.5183 96.5471 98.4294 96.5182 98.3436C96.5054 98.3068 96.1404 96.6486 96.1244 96.5566C96.1019 96.5014 96.1211 96.4984 96.0699 96.4984C95.961 96.4984 95.8457 96.5045 95.7337 96.4984C95.6888 96.4984 95.692 96.5106 95.6856 96.5566C95.6792 96.5995 95.5639 97.0869 95.5191 97.2892C95.4614 97.5436 95.4102 97.7888 95.3462 98.0402C95.3237 98.1291 95.17 98.7697 95.1892 98.7727C95.1988 98.7789 95.2149 98.7758 95.2277 98.7758C95.3077 98.7758 95.3814 98.7758 95.4807 98.7727ZM95.9002 98.0769H95.8329C95.7433 98.0769 95.7401 98.0769 95.7625 97.9881C95.7785 97.9206 95.865 97.5559 95.8842 97.467C95.8874 97.4608 95.8938 97.4547 95.897 97.4547C95.9034 97.4547 95.9098 97.4608 95.913 97.4639C95.9258 97.5007 95.9386 97.5926 95.9514 97.6294C95.9802 97.7459 95.9995 97.844 96.0283 97.9697C96.0571 98.08 96.0443 98.08 95.9866 98.08C95.9578 98.08 95.929 98.0769 95.9002 98.0769ZM98.0453 98.8003C98.0934 98.8003 98.2695 98.8034 98.3047 98.7973C98.3271 98.7911 98.3399 98.736 98.3464 98.7176C98.3656 98.6593 98.3784 98.598 98.3944 98.5398C98.4296 98.3865 98.7851 97.0992 98.91 96.6179C98.9164 96.5965 98.9228 96.5719 98.9164 96.5505C98.9068 96.5045 98.878 96.4984 98.8395 96.4984C98.7659 96.5014 98.6922 96.4984 98.6186 96.4984C98.5353 96.4984 98.5033 96.5076 98.4777 96.5965C98.3528 97.0072 98.2695 97.4976 98.1542 97.9145L98.135 97.9635C98.135 97.9666 98.1222 97.9635 98.1222 97.9635C98.1158 97.9482 98.1062 97.9359 98.103 97.9206C97.9877 97.4823 97.7987 96.6148 97.7667 96.5321C97.7475 96.483 97.6995 96.4984 97.6546 96.4984C97.565 96.4984 97.4817 96.5014 97.3952 96.5014C97.3632 96.5045 97.3408 96.5168 97.344 96.5474C97.344 96.5719 97.3792 96.7068 97.3856 96.7436L97.4208 96.8723C97.4433 96.9704 97.4753 97.093 97.4977 97.188C97.6194 97.6754 97.7507 98.1628 97.8948 98.644C97.9076 98.6869 97.9172 98.7605 97.9493 98.785C97.9749 98.8065 98.0165 98.7973 98.0453 98.8003ZM99.6589 98.1689H99.6557C99.6557 98.2455 99.6525 98.3252 99.6557 98.4049C99.6589 98.503 99.6653 98.6011 99.6717 98.6992C99.6717 98.7329 99.6813 98.7421 99.7133 98.7482C99.7806 98.7636 99.8446 98.7666 99.9119 98.7666C100.085 98.7605 100.258 98.7727 100.431 98.7666C100.501 98.7636 100.533 98.7697 100.604 98.7574C100.668 98.7452 100.69 98.7114 100.69 98.6195C100.684 98.5612 100.687 98.5367 100.687 98.4662C100.687 98.3651 100.613 98.3314 100.549 98.3344C100.504 98.3375 100.29 98.3314 100.203 98.3314C100.059 98.3344 100.082 98.3528 100.082 98.2088C100.082 98.0923 100.085 97.9421 100.085 97.8225C100.085 97.7582 100.091 97.7367 100.155 97.7367H100.556C100.62 97.7459 100.664 97.703 100.664 97.6386C100.664 97.5743 100.671 97.5712 100.671 97.5068L100.661 97.4149C100.655 97.3628 100.636 97.3444 100.581 97.3444C100.546 97.3444 100.511 97.3474 100.475 97.3505C100.338 97.3597 100.274 97.3413 100.139 97.3505C100.094 97.3505 100.088 97.3444 100.085 97.3045C100.072 97.185 100.085 97.0532 100.098 96.9336C100.101 96.8846 100.114 96.8754 100.162 96.8723L100.613 96.8693C100.674 96.8631 100.693 96.8662 100.69 96.808C100.684 96.7191 100.693 96.6271 100.684 96.5382C100.677 96.4892 100.661 96.48 100.604 96.48C100.508 96.483 100.485 96.483 100.389 96.4892C100.293 96.4922 99.9087 96.4922 99.8158 96.4922C99.6813 96.4922 99.6717 96.483 99.6685 96.6394C99.6621 96.762 99.6653 96.8877 99.6653 97.0133C99.6653 97.2279 99.6525 97.9973 99.6589 98.1689ZM102.79 96.5689C102.8 96.6118 102.794 98.6532 102.794 98.7053C102.794 98.7973 102.758 98.7942 102.694 98.7942C102.598 98.7942 102.464 98.8095 102.435 98.7789C102.409 98.7574 101.935 97.6631 101.868 97.5252C101.862 97.513 101.846 97.4823 101.833 97.4884C101.817 97.4946 101.823 97.516 101.823 97.5283C101.82 97.6356 101.839 98.5612 101.839 98.7084C101.839 98.7819 101.836 98.7942 101.772 98.7942H101.612C101.57 98.7942 101.519 98.7911 101.477 98.7973C101.445 98.7973 101.429 98.7881 101.426 98.7574V98.5153C101.433 98.2578 101.426 96.7313 101.426 96.6179C101.426 96.5198 101.455 96.5014 101.557 96.5014C101.628 96.4984 101.698 96.4984 101.769 96.4984C101.791 96.4984 101.804 96.5014 101.817 96.529C101.903 96.7221 102.272 97.608 102.329 97.7153C102.339 97.7367 102.374 97.8225 102.393 97.8317H102.396C102.409 97.8195 102.406 97.7582 102.406 97.7398C102.406 97.6938 102.38 96.6179 102.38 96.5965C102.38 96.5658 102.371 96.5382 102.387 96.5168C102.396 96.5045 102.438 96.5014 102.454 96.4984C102.544 96.4922 102.649 96.5014 102.739 96.4984C102.784 96.4984 102.781 96.529 102.79 96.5689Z" fill="#127780"/>
</g>
<defs>
<clipPath id="clip0">
<rect width="140" height="134" fill="white"/>
</clipPath>
</defs>
</svg>
