<svg width="36" height="37" viewBox="0 0 36 37" fill="none" xmlns="http://www.w3.org/2000/svg">
<path d="M8.7434 6.98837C7.8434 9.06037 8.1989 12.7727 8.3429 15.3689C7.3709 15.9223 6.1229 14.9511 5.4164 14.9511C4.6814 14.9511 3.8039 15.4475 3.6659 16.1875C3.5669 16.7209 3.7994 17.4979 5.4674 18.1747C6.1124 18.4368 7.6469 18.7451 8.0024 19.6054C8.5019 20.814 5.4374 26.3933 0.625399 27.2073C0.443723 27.2382 0.279542 27.3369 0.164374 27.4846C0.0492066 27.6323 -0.00883238 27.8185 0.00139884 28.0075C0.0853988 29.5106 3.3644 30.0995 4.8179 30.3307C4.9664 30.5373 5.0864 31.4099 5.2769 32.0744C5.3624 32.3719 5.5829 32.728 6.1499 32.728C6.8894 32.728 8.1179 32.1422 10.2569 32.506C12.3539 32.8652 14.3249 35.9208 18.1094 35.9208C21.6269 35.9208 23.7254 32.8514 25.7444 32.506C26.9129 32.3072 27.9164 32.3704 29.0384 32.5955C29.8109 32.7512 30.5039 32.8375 30.7244 32.0574C30.9179 31.3837 31.0364 30.5281 31.1819 30.3261C32.6219 30.0964 35.9159 29.509 35.9984 28.0059C36.0086 27.8169 35.9506 27.6308 35.8354 27.4831C35.7202 27.3354 35.5561 27.2367 35.3744 27.2058C30.6434 26.4041 27.4859 20.8418 27.9974 19.6038C28.3514 18.7451 29.8754 18.4399 30.5324 18.1732C31.7534 17.6783 32.3654 17.0693 32.3519 16.3648C32.3354 15.4629 31.2794 14.9249 30.5024 14.9249C29.7119 14.9249 28.5764 15.8869 27.6569 15.3658C27.8009 12.748 28.1549 9.05266 27.2564 6.9822C25.5539 3.06175 21.7664 1.07916 17.9804 1.07916C14.2184 1.07916 10.4594 3.034 8.7434 6.98837Z" fill="white"/>
</svg>
