<svg width="36" height="37" viewBox="0 0 36 37" fill="none" xmlns="http://www.w3.org/2000/svg">
<path d="M35.4645 7.61119C34.212 8.18161 32.8665 8.56703 31.452 8.74124C32.9115 7.84367 34.0034 6.431 34.524 4.76682C33.1528 5.60393 31.652 6.19316 30.087 6.5089C29.0346 5.35399 27.6406 4.58849 26.1215 4.33126C24.6024 4.07403 23.0432 4.33946 21.6859 5.08633C20.3286 5.83321 19.2492 7.01975 18.6152 8.46174C17.9813 9.90372 17.8283 11.5205 18.18 13.061C15.4015 12.9176 12.6835 12.1754 10.2022 10.8825C7.72085 9.58956 5.53178 7.77486 3.77702 5.55615C3.17702 6.6199 2.83202 7.85324 2.83202 9.16674C2.83135 10.3492 3.11467 11.5135 3.65684 12.5564C4.199 13.5994 4.98326 14.4886 5.94002 15.1453C4.83043 15.109 3.74533 14.8009 2.77502 14.2465V14.339C2.77491 15.9975 3.33307 17.6049 4.35479 18.8885C5.37652 20.1721 6.79887 21.0529 8.38052 21.3814C7.35119 21.6677 6.27202 21.7098 5.22452 21.5047C5.67076 22.9317 6.54001 24.1795 7.71057 25.0735C8.88113 25.9676 10.2944 26.463 11.7525 26.4904C9.27727 28.4875 6.22035 29.5708 3.07352 29.5661C2.51609 29.5662 1.95913 29.5328 1.40552 29.4659C4.59973 31.5767 8.31803 32.6969 12.1155 32.6926C24.9705 32.6926 31.998 21.7498 31.998 12.2593C31.998 11.951 31.9905 11.6396 31.977 11.3312C33.344 10.3152 34.5239 9.05712 35.4615 7.61582L35.4645 7.61119Z" fill="black"/>
</svg>
